# MagicaVoxel @ Ephtracy

# group
o 

# material
mtllib ThorNivel5-1.mtl
usemtl palette

# normals
vn -1 0 0
vn 1 0 0
vn 0 0 1
vn 0 0 -1
vn 0 -1 0
vn 0 1 0

# texcoords
vt 0.00976563 0.5
vt 0.533203 0.5
vt 0.544922 0.5

# verts
v -5.2 8.7 0.7
v -5.2 8.7 -1.3
v -5.2 9.3 0.7
v -5.2 9.3 -1.3
v -5.1 8.6 0.8
v -5.1 8.6 -1.4
v -5.1 8.7 0.7
v -5.1 8.7 -1.3
v -5.1 9.3 0.7
v -5.1 9.3 -1.3
v -5.1 9.4 0.8
v -5.1 9.4 -1.4
v -5 8.5 0.9
v -5 8.5 -1.5
v -5 8.6 0.8
v -5 8.6 -1.4
v -5 9.4 0.8
v -5 9.4 -1.4
v -5 9.5 0.9
v -5 9.5 -1.5
v -4.9 8.4 0.9
v -4.9 8.4 -1.5
v -4.9 8.5 1
v -4.9 8.5 0.9
v -4.9 8.5 -1.5
v -4.9 8.5 -1.6
v -4.9 9.5 1
v -4.9 9.5 0.9
v -4.9 9.5 -1.5
v -4.9 9.5 -1.6
v -4.9 9.6 0.9
v -4.9 9.6 -1.5
v -4.8 8.3 0.8
v -4.8 8.3 -1.4
v -4.8 8.4 0.8
v -4.8 8.4 -1.4
v -4.8 8.6 1.1
v -4.8 8.6 1
v -4.8 8.6 -1.6
v -4.8 8.6 -1.7
v -4.8 9.4 1.1
v -4.8 9.4 1
v -4.8 9.5 -1.6
v -4.8 9.5 -1.7
v -4.8 9.6 0.8
v -4.8 9.6 -1.4
v -4.8 9.7 0.8
v -4.8 9.7 -1.4
v -4.7 8.2 0.7
v -4.7 8.2 -1.3
v -4.7 8.3 0.7
v -4.7 8.3 -1.3
v -4.7 9.7 0.7
v -4.7 9.7 -1.3
v -4.7 9.8 0.7
v -4.7 9.8 -1.3
v -4.2 8.2 -0.1
v -4.2 8.2 -0.5
v -4.2 8.3 -0.1
v -4.2 8.3 -0.5
v -4.2 8.4 -0.1
v -4.2 8.4 -0.5
v -4 8.4 0.8
v -4 8.4 -1.4
v -4 8.5 0.8
v -4 8.5 -1.4
v -4 8.6 1
v -4 8.6 0.9
v -4 8.6 0.8
v -4 8.6 -1.4
v -4 8.6 -1.5
v -4 8.6 -1.6
v -4 9.4 1
v -4 9.4 0.9
v -4 9.4 0.8
v -4 9.4 -1.4
v -4 9.4 -1.5
v -4 9.4 -1.6
v -4 9.5 0.8
v -4 9.5 -1.4
v -4 9.6 0.8
v -4 9.6 -1.4
v -3.8 8.6 0.8
v -3.8 8.6 -1.4
v -3.8 8.7 0.7
v -3.8 8.7 -1.3
v -3.8 9.3 0.7
v -3.8 9.3 -1.3
v -3.8 9.4 0.8
v -3.8 9.4 -1.4
v -5 8.6 0.8
v -5 8.6 -1.4
v -5 8.7 0.7
v -5 8.7 -1.3
v -5 9.3 0.7
v -5 9.3 -1.3
v -5 9.4 0.8
v -5 9.4 -1.4
v -4.8 8.4 0.8
v -4.8 8.4 -1.4
v -4.8 8.5 0.8
v -4.8 8.5 -1.4
v -4.8 8.6 1
v -4.8 8.6 0.9
v -4.8 8.6 0.8
v -4.8 8.6 -1.4
v -4.8 8.6 -1.5
v -4.8 8.6 -1.6
v -4.8 9.4 1
v -4.8 9.4 0.9
v -4.8 9.4 0.8
v -4.8 9.4 -1.4
v -4.8 9.4 -1.5
v -4.8 9.4 -1.6
v -4.8 9.5 0.8
v -4.8 9.5 -1.4
v -4.8 9.6 0.8
v -4.8 9.6 -1.4
v -4.6 8.2 -0.1
v -4.6 8.2 -0.5
v -4.6 8.3 -0.1
v -4.6 8.3 -0.5
v -4.6 8.4 -0.1
v -4.6 8.4 -0.5
v -4.1 8.2 0.7
v -4.1 8.2 -1.3
v -4.1 8.3 0.7
v -4.1 8.3 -1.3
v -4.1 9.7 0.7
v -4.1 9.7 -1.3
v -4.1 9.8 0.7
v -4.1 9.8 -1.3
v -4 8.3 0.8
v -4 8.3 -1.4
v -4 8.4 0.8
v -4 8.4 -1.4
v -4 8.6 1.1
v -4 8.6 1
v -4 8.6 -1.6
v -4 8.6 -1.7
v -4 9.4 1.1
v -4 9.4 1
v -4 9.5 -1.6
v -4 9.5 -1.7
v -4 9.6 0.8
v -4 9.6 -1.4
v -4 9.7 0.8
v -4 9.7 -1.4
v -3.9 8.4 0.9
v -3.9 8.4 -1.5
v -3.9 8.5 1
v -3.9 8.5 0.9
v -3.9 8.5 -1.5
v -3.9 8.5 -1.6
v -3.9 9.5 1
v -3.9 9.5 0.9
v -3.9 9.5 -1.5
v -3.9 9.5 -1.6
v -3.9 9.6 0.9
v -3.9 9.6 -1.5
v -3.8 8.5 0.9
v -3.8 8.5 -1.5
v -3.8 8.6 0.8
v -3.8 8.6 -1.4
v -3.8 9.4 0.8
v -3.8 9.4 -1.4
v -3.8 9.5 0.9
v -3.8 9.5 -1.5
v -3.7 8.6 0.8
v -3.7 8.6 -1.4
v -3.7 8.7 0.7
v -3.7 8.7 -1.3
v -3.7 9.3 0.7
v -3.7 9.3 -1.3
v -3.7 9.4 0.8
v -3.7 9.4 -1.4
v -3.6 8.7 0.7
v -3.6 8.7 -1.3
v -3.6 9.3 0.7
v -3.6 9.3 -1.3
v -4.8 8.6 1.1
v -4.8 9.4 1.1
v -4 8.6 1.1
v -4 9.4 1.1
v -4.9 8.5 1
v -4.9 9.5 1
v -4.8 8.6 1
v -4.8 9.4 1
v -4 8.6 1
v -4 9.4 1
v -3.9 8.5 1
v -3.9 9.5 1
v -5 8.5 0.9
v -5 9.5 0.9
v -4.9 8.4 0.9
v -4.9 8.5 0.9
v -4.9 9.5 0.9
v -4.9 9.6 0.9
v -3.9 8.4 0.9
v -3.9 8.5 0.9
v -3.9 9.5 0.9
v -3.9 9.6 0.9
v -3.8 8.5 0.9
v -3.8 9.5 0.9
v -5.1 8.6 0.8
v -5.1 9.4 0.8
v -5 8.6 0.8
v -5 9.4 0.8
v -4.8 8.3 0.8
v -4.8 8.4 0.8
v -4.8 9.6 0.8
v -4.8 9.7 0.8
v -4 8.3 0.8
v -4 8.4 0.8
v -4 9.6 0.8
v -4 9.7 0.8
v -3.8 8.6 0.8
v -3.8 9.4 0.8
v -3.7 8.6 0.8
v -3.7 9.4 0.8
v -5.2 8.7 0.7
v -5.2 9.3 0.7
v -5.1 8.7 0.7
v -5.1 9.3 0.7
v -4.7 8.2 0.7
v -4.7 8.3 0.7
v -4.7 9.7 0.7
v -4.7 9.8 0.7
v -4.1 8.2 0.7
v -4.1 8.3 0.7
v -4.1 9.7 0.7
v -4.1 9.8 0.7
v -3.7 8.7 0.7
v -3.7 9.3 0.7
v -3.6 8.7 0.7
v -3.6 9.3 0.7
v -4.6 8.2 -0.5
v -4.6 8.3 -0.5
v -4.6 8.4 -0.5
v -4.2 8.2 -0.5
v -4.2 8.3 -0.5
v -4.2 8.4 -0.5
v -5 8.6 -1.4
v -5 9.4 -1.4
v -4.9 8.6 -1.4
v -4.9 9.4 -1.4
v -4.8 8.4 -1.4
v -4.8 8.5 -1.4
v -4.8 8.6 -1.4
v -4.8 9.4 -1.4
v -4.8 9.5 -1.4
v -4.8 9.6 -1.4
v -4 8.4 -1.4
v -4 8.5 -1.4
v -4 8.6 -1.4
v -4 9.4 -1.4
v -4 9.5 -1.4
v -4 9.6 -1.4
v -3.9 8.6 -1.4
v -3.9 9.4 -1.4
v -3.8 8.6 -1.4
v -3.8 9.4 -1.4
v -4.8 8.6 -1.6
v -4.8 9.4 -1.6
v -4 8.6 -1.6
v -4 9.4 -1.6
v -4.8 8.6 1
v -4.8 9.4 1
v -4 8.6 1
v -4 9.4 1
v -5 8.6 0.8
v -5 9.4 0.8
v -4.9 8.6 0.8
v -4.9 9.4 0.8
v -4.8 8.4 0.8
v -4.8 8.5 0.8
v -4.8 8.6 0.8
v -4.8 9.4 0.8
v -4.8 9.5 0.8
v -4.8 9.6 0.8
v -4 8.4 0.8
v -4 8.5 0.8
v -4 8.6 0.8
v -4 9.4 0.8
v -4 9.5 0.8
v -4 9.6 0.8
v -3.9 8.6 0.8
v -3.9 9.4 0.8
v -3.8 8.6 0.8
v -3.8 9.4 0.8
v -4.6 8.2 -0.1
v -4.6 8.3 -0.1
v -4.6 8.4 -0.1
v -4.2 8.2 -0.1
v -4.2 8.3 -0.1
v -4.2 8.4 -0.1
v -5.2 8.7 -1.3
v -5.2 9.3 -1.3
v -5.1 8.7 -1.3
v -5.1 9.3 -1.3
v -4.7 8.2 -1.3
v -4.7 8.3 -1.3
v -4.7 9.7 -1.3
v -4.7 9.8 -1.3
v -4.1 8.2 -1.3
v -4.1 8.3 -1.3
v -4.1 9.7 -1.3
v -4.1 9.8 -1.3
v -3.7 8.7 -1.3
v -3.7 9.3 -1.3
v -3.6 8.7 -1.3
v -3.6 9.3 -1.3
v -5.1 8.6 -1.4
v -5.1 9.4 -1.4
v -5 8.6 -1.4
v -5 9.4 -1.4
v -4.8 8.3 -1.4
v -4.8 8.4 -1.4
v -4.8 9.6 -1.4
v -4.8 9.7 -1.4
v -4 8.3 -1.4
v -4 8.4 -1.4
v -4 9.6 -1.4
v -4 9.7 -1.4
v -3.8 8.6 -1.4
v -3.8 9.4 -1.4
v -3.7 8.6 -1.4
v -3.7 9.4 -1.4
v -5 8.5 -1.5
v -5 9.5 -1.5
v -4.9 8.4 -1.5
v -4.9 8.5 -1.5
v -4.9 9.5 -1.5
v -4.9 9.6 -1.5
v -3.9 8.4 -1.5
v -3.9 8.5 -1.5
v -3.9 9.5 -1.5
v -3.9 9.6 -1.5
v -3.8 8.5 -1.5
v -3.8 9.5 -1.5
v -4.9 8.5 -1.6
v -4.9 9.5 -1.6
v -4.8 8.6 -1.6
v -4.8 9.5 -1.6
v -4 8.6 -1.6
v -4 9.5 -1.6
v -3.9 8.5 -1.6
v -3.9 9.5 -1.6
v -4.8 8.6 -1.7
v -4.8 9.5 -1.7
v -4 8.6 -1.7
v -4 9.5 -1.7
v -4.7 8.2 0.7
v -4.1 8.2 0.7
v -4.6 8.2 -0.1
v -4.2 8.2 -0.1
v -4.6 8.2 -0.5
v -4.2 8.2 -0.5
v -4.7 8.2 -1.3
v -4.1 8.2 -1.3
v -4.8 8.3 0.8
v -4 8.3 0.8
v -4.7 8.3 0.7
v -4.1 8.3 0.7
v -4.7 8.3 -1.3
v -4.1 8.3 -1.3
v -4.8 8.3 -1.4
v -4 8.3 -1.4
v -4.9 8.4 0.9
v -3.9 8.4 0.9
v -4.8 8.4 0.8
v -4 8.4 0.8
v -4.8 8.4 -1.4
v -4 8.4 -1.4
v -4.9 8.4 -1.5
v -3.9 8.4 -1.5
v -4.9 8.5 1
v -3.9 8.5 1
v -5 8.5 0.9
v -4.9 8.5 0.9
v -3.9 8.5 0.9
v -3.8 8.5 0.9
v -5 8.5 -1.5
v -4.9 8.5 -1.5
v -3.9 8.5 -1.5
v -3.8 8.5 -1.5
v -4.9 8.5 -1.6
v -3.9 8.5 -1.6
v -4.8 8.6 1.1
v -4 8.6 1.1
v -4.8 8.6 1
v -4 8.6 1
v -5.1 8.6 0.8
v -5 8.6 0.8
v -3.8 8.6 0.8
v -3.7 8.6 0.8
v -5.1 8.6 -1.4
v -5 8.6 -1.4
v -3.8 8.6 -1.4
v -3.7 8.6 -1.4
v -4.8 8.6 -1.6
v -4 8.6 -1.6
v -4.8 8.6 -1.7
v -4 8.6 -1.7
v -5.2 8.7 0.7
v -5.1 8.7 0.7
v -3.7 8.7 0.7
v -3.6 8.7 0.7
v -5.2 8.7 -1.3
v -5.1 8.7 -1.3
v -3.7 8.7 -1.3
v -3.6 8.7 -1.3
v -4.8 9.4 1
v -4 9.4 1
v -4.8 9.4 0.9
v -4 9.4 0.9
v -5 9.4 0.8
v -4.9 9.4 0.8
v -4.8 9.4 0.8
v -4 9.4 0.8
v -3.9 9.4 0.8
v -3.8 9.4 0.8
v -5 9.4 -1.4
v -4.9 9.4 -1.4
v -4.8 9.4 -1.4
v -4 9.4 -1.4
v -3.9 9.4 -1.4
v -3.8 9.4 -1.4
v -4.8 9.4 -1.5
v -4 9.4 -1.5
v -4.8 9.4 -1.6
v -4 9.4 -1.6
v -4.8 9.6 0.8
v -4 9.6 0.8
v -4.7 9.6 0.7
v -4.1 9.6 0.7
v -4.7 9.6 -1.3
v -4.1 9.6 -1.3
v -4.8 9.6 -1.4
v -4 9.6 -1.4
v -4.8 8.4 0.8
v -4 8.4 0.8
v -4.7 8.4 0.7
v -4.1 8.4 0.7
v -4.6 8.4 -0.1
v -4.2 8.4 -0.1
v -4.6 8.4 -0.5
v -4.2 8.4 -0.5
v -4.7 8.4 -1.3
v -4.1 8.4 -1.3
v -4.8 8.4 -1.4
v -4 8.4 -1.4
v -4.8 8.6 1
v -4 8.6 1
v -4.8 8.6 0.9
v -4 8.6 0.9
v -5 8.6 0.8
v -4.9 8.6 0.8
v -4.8 8.6 0.8
v -4 8.6 0.8
v -3.9 8.6 0.8
v -3.8 8.6 0.8
v -5 8.6 -1.4
v -4.9 8.6 -1.4
v -4.8 8.6 -1.4
v -4 8.6 -1.4
v -3.9 8.6 -1.4
v -3.8 8.6 -1.4
v -4.8 8.6 -1.5
v -4 8.6 -1.5
v -4.8 8.6 -1.6
v -4 8.6 -1.6
v -5.2 9.3 0.7
v -5.1 9.3 0.7
v -3.7 9.3 0.7
v -3.6 9.3 0.7
v -5.2 9.3 -1.3
v -5.1 9.3 -1.3
v -3.7 9.3 -1.3
v -3.6 9.3 -1.3
v -4.8 9.4 1.1
v -4 9.4 1.1
v -4.8 9.4 1
v -4 9.4 1
v -5.1 9.4 0.8
v -5 9.4 0.8
v -3.8 9.4 0.8
v -3.7 9.4 0.8
v -5.1 9.4 -1.4
v -5 9.4 -1.4
v -3.8 9.4 -1.4
v -3.7 9.4 -1.4
v -4.9 9.5 1
v -3.9 9.5 1
v -5 9.5 0.9
v -4.9 9.5 0.9
v -3.9 9.5 0.9
v -3.8 9.5 0.9
v -5 9.5 -1.5
v -4.9 9.5 -1.5
v -3.9 9.5 -1.5
v -3.8 9.5 -1.5
v -4.9 9.5 -1.6
v -4.8 9.5 -1.6
v -4 9.5 -1.6
v -3.9 9.5 -1.6
v -4.8 9.5 -1.7
v -4 9.5 -1.7
v -4.9 9.6 0.9
v -3.9 9.6 0.9
v -4.8 9.6 0.8
v -4 9.6 0.8
v -4.8 9.6 -1.4
v -4 9.6 -1.4
v -4.9 9.6 -1.5
v -3.9 9.6 -1.5
v -4.8 9.7 0.8
v -4 9.7 0.8
v -4.7 9.7 0.7
v -4.1 9.7 0.7
v -4.7 9.7 -1.3
v -4.1 9.7 -1.3
v -4.8 9.7 -1.4
v -4 9.7 -1.4
v -4.7 9.8 0.7
v -4.1 9.8 0.7
v -4.7 9.8 -1.3
v -4.1 9.8 -1.3

# faces
f 3/2/1 2/2/1 1/2/1
f 4/2/1 2/2/1 3/2/1
f 7/3/1 6/3/1 5/3/1
f 8/3/1 6/3/1 7/3/1
f 9/3/1 7/3/1 5/3/1
f 10/3/1 6/3/1 8/3/1
f 11/3/1 9/3/1 5/3/1
f 11/3/1 10/3/1 9/3/1
f 12/3/1 6/3/1 10/3/1
f 12/3/1 10/3/1 11/3/1
f 15/2/1 14/2/1 13/2/1
f 16/2/1 14/2/1 15/2/1
f 17/2/1 15/2/1 13/2/1
f 18/2/1 14/2/1 16/2/1
f 19/2/1 17/2/1 13/2/1
f 19/2/1 18/2/1 17/2/1
f 20/2/1 14/2/1 18/2/1
f 20/2/1 18/2/1 19/2/1
f 24/3/1 22/3/1 21/3/1
f 25/3/1 22/3/1 24/3/1
f 27/2/1 24/2/1 23/2/1
f 28/2/1 24/2/1 27/2/1
f 29/2/1 26/2/1 25/2/1
f 30/2/1 26/2/1 29/2/1
f 31/3/1 29/3/1 28/3/1
f 32/3/1 29/3/1 31/3/1
f 35/2/1 34/2/1 33/2/1
f 36/2/1 34/2/1 35/2/1
f 41/3/1 38/3/1 37/3/1
f 42/3/1 38/3/1 41/3/1
f 43/3/1 40/3/1 39/3/1
f 44/3/1 40/3/1 43/3/1
f 47/2/1 46/2/1 45/2/1
f 48/2/1 46/2/1 47/2/1
f 51/3/1 50/3/1 49/3/1
f 52/3/1 50/3/1 51/3/1
f 55/2/1 54/2/1 53/2/1
f 56/2/1 54/2/1 55/2/1
f 59/3/1 58/3/1 57/3/1
f 60/3/1 58/3/1 59/3/1
f 61/1/1 60/1/1 59/1/1
f 62/1/1 60/1/1 61/1/1
f 65/3/1 64/3/1 63/3/1
f 66/3/1 64/3/1 65/3/1
f 69/1/1 66/1/1 65/1/1
f 70/1/1 66/1/1 69/1/1
f 73/2/1 68/2/1 67/2/1
f 74/1/1 69/1/1 68/1/1
f 74/2/1 68/2/1 73/2/1
f 75/1/1 69/1/1 74/1/1
f 76/1/1 71/1/1 70/1/1
f 77/2/1 72/2/1 71/2/1
f 77/1/1 71/1/1 76/1/1
f 78/2/1 72/2/1 77/2/1
f 79/1/1 76/1/1 75/1/1
f 80/1/1 76/1/1 79/1/1
f 81/3/1 80/3/1 79/3/1
f 82/3/1 80/3/1 81/3/1
f 85/3/1 84/3/1 83/3/1
f 86/3/1 84/3/1 85/3/1
f 87/3/1 85/3/1 83/3/1
f 87/1/1 86/1/1 85/1/1
f 88/3/1 84/3/1 86/3/1
f 88/1/1 86/1/1 87/1/1
f 89/3/1 87/3/1 83/3/1
f 89/3/1 88/3/1 87/3/1
f 90/3/1 84/3/1 88/3/1
f 90/3/1 88/3/1 89/3/1
f 91/3/2 92/3/2 93/3/2
f 93/3/2 92/3/2 94/3/2
f 91/3/2 93/3/2 95/3/2
f 93/1/2 94/1/2 95/1/2
f 94/3/2 92/3/2 96/3/2
f 95/1/2 94/1/2 96/1/2
f 91/3/2 95/3/2 97/3/2
f 95/3/2 96/3/2 97/3/2
f 96/3/2 92/3/2 98/3/2
f 97/3/2 96/3/2 98/3/2
f 99/3/2 100/3/2 101/3/2
f 101/3/2 100/3/2 102/3/2
f 101/1/2 102/1/2 105/1/2
f 105/1/2 102/1/2 106/1/2
f 103/2/2 104/2/2 109/2/2
f 104/1/2 105/1/2 110/1/2
f 109/2/2 104/2/2 110/2/2
f 110/1/2 105/1/2 111/1/2
f 106/1/2 107/1/2 112/1/2
f 107/2/2 108/2/2 113/2/2
f 112/1/2 107/1/2 113/1/2
f 113/2/2 108/2/2 114/2/2
f 111/1/2 112/1/2 115/1/2
f 115/1/2 112/1/2 116/1/2
f 115/3/2 116/3/2 117/3/2
f 117/3/2 116/3/2 118/3/2
f 119/3/2 120/3/2 121/3/2
f 121/3/2 120/3/2 122/3/2
f 121/1/2 122/1/2 123/1/2
f 123/1/2 122/1/2 124/1/2
f 125/3/2 126/3/2 127/3/2
f 127/3/2 126/3/2 128/3/2
f 129/2/2 130/2/2 131/2/2
f 131/2/2 130/2/2 132/2/2
f 133/2/2 134/2/2 135/2/2
f 135/2/2 134/2/2 136/2/2
f 137/3/2 138/3/2 141/3/2
f 141/3/2 138/3/2 142/3/2
f 139/3/2 140/3/2 143/3/2
f 143/3/2 140/3/2 144/3/2
f 145/2/2 146/2/2 147/2/2
f 147/2/2 146/2/2 148/2/2
f 149/3/2 150/3/2 152/3/2
f 152/3/2 150/3/2 153/3/2
f 151/2/2 152/2/2 155/2/2
f 155/2/2 152/2/2 156/2/2
f 153/2/2 154/2/2 157/2/2
f 157/2/2 154/2/2 158/2/2
f 156/3/2 157/3/2 159/3/2
f 159/3/2 157/3/2 160/3/2
f 161/2/2 162/2/2 163/2/2
f 163/2/2 162/2/2 164/2/2
f 161/2/2 163/2/2 165/2/2
f 164/2/2 162/2/2 166/2/2
f 161/2/2 165/2/2 167/2/2
f 165/2/2 166/2/2 167/2/2
f 166/2/2 162/2/2 168/2/2
f 167/2/2 166/2/2 168/2/2
f 169/3/2 170/3/2 171/3/2
f 171/3/2 170/3/2 172/3/2
f 169/3/2 171/3/2 173/3/2
f 172/3/2 170/3/2 174/3/2
f 169/3/2 173/3/2 175/3/2
f 173/3/2 174/3/2 175/3/2
f 174/3/2 170/3/2 176/3/2
f 175/3/2 174/3/2 176/3/2
f 177/2/2 178/2/2 179/2/2
f 179/2/2 178/2/2 180/2/2
f 183/3/3 182/3/3 181/3/3
f 184/3/3 182/3/3 183/3/3
f 187/2/3 186/2/3 185/2/3
f 188/2/3 186/2/3 187/2/3
f 189/2/3 187/2/3 185/2/3
f 190/2/3 186/2/3 188/2/3
f 191/2/3 189/2/3 185/2/3
f 191/2/3 190/2/3 189/2/3
f 192/2/3 186/2/3 190/2/3
f 192/2/3 190/2/3 191/2/3
f 196/2/3 194/2/3 193/2/3
f 197/2/3 194/2/3 196/2/3
f 199/3/3 196/3/3 195/3/3
f 200/3/3 196/3/3 199/3/3
f 201/3/3 198/3/3 197/3/3
f 202/3/3 198/3/3 201/3/3
f 203/2/3 201/2/3 200/2/3
f 204/2/3 201/2/3 203/2/3
f 207/3/3 206/3/3 205/3/3
f 208/3/3 206/3/3 207/3/3
f 213/2/3 210/2/3 209/2/3
f 214/2/3 210/2/3 213/2/3
f 215/2/3 212/2/3 211/2/3
f 216/2/3 212/2/3 215/2/3
f 219/3/3 218/3/3 217/3/3
f 220/3/3 218/3/3 219/3/3
f 223/2/3 222/2/3 221/2/3
f 224/2/3 222/2/3 223/2/3
f 229/3/3 226/3/3 225/3/3
f 230/3/3 226/3/3 229/3/3
f 231/2/3 228/2/3 227/2/3
f 232/2/3 228/2/3 231/2/3
f 235/2/3 234/2/3 233/2/3
f 236/2/3 234/2/3 235/2/3
f 240/3/3 238/3/3 237/3/3
f 241/1/3 239/1/3 238/1/3
f 241/3/3 238/3/3 240/3/3
f 242/1/3 239/1/3 241/1/3
f 245/2/3 244/2/3 243/2/3
f 246/2/3 244/2/3 245/2/3
f 249/1/3 246/1/3 245/1/3
f 250/1/3 246/1/3 249/1/3
f 253/3/3 248/3/3 247/3/3
f 254/1/3 249/1/3 248/1/3
f 254/3/3 248/3/3 253/3/3
f 255/1/3 249/1/3 254/1/3
f 256/1/3 251/1/3 250/1/3
f 257/3/3 252/3/3 251/3/3
f 257/1/3 251/1/3 256/1/3
f 258/3/3 252/3/3 257/3/3
f 259/1/3 256/1/3 255/1/3
f 260/1/3 256/1/3 259/1/3
f 261/2/3 260/2/3 259/2/3
f 262/2/3 260/2/3 261/2/3
f 265/3/3 264/3/3 263/3/3
f 266/3/3 264/3/3 265/3/3
f 267/3/4 268/3/4 269/3/4
f 269/3/4 268/3/4 270/3/4
f 271/2/4 272/2/4 273/2/4
f 273/2/4 272/2/4 274/2/4
f 273/1/4 274/1/4 277/1/4
f 277/1/4 274/1/4 278/1/4
f 275/3/4 276/3/4 281/3/4
f 276/1/4 277/1/4 282/1/4
f 281/3/4 276/3/4 282/3/4
f 282/1/4 277/1/4 283/1/4
f 278/1/4 279/1/4 284/1/4
f 279/3/4 280/3/4 285/3/4
f 284/1/4 279/1/4 285/1/4
f 285/3/4 280/3/4 286/3/4
f 283/1/4 284/1/4 287/1/4
f 287/1/4 284/1/4 288/1/4
f 287/2/4 288/2/4 289/2/4
f 289/2/4 288/2/4 290/2/4
f 291/3/4 292/3/4 294/3/4
f 292/1/4 293/1/4 295/1/4
f 294/3/4 292/3/4 295/3/4
f 295/1/4 293/1/4 296/1/4
f 297/2/4 298/2/4 299/2/4
f 299/2/4 298/2/4 300/2/4
f 301/3/4 302/3/4 305/3/4
f 305/3/4 302/3/4 306/3/4
f 303/2/4 304/2/4 307/2/4
f 307/2/4 304/2/4 308/2/4
f 309/2/4 310/2/4 311/2/4
f 311/2/4 310/2/4 312/2/4
f 313/3/4 314/3/4 315/3/4
f 315/3/4 314/3/4 316/3/4
f 317/2/4 318/2/4 321/2/4
f 321/2/4 318/2/4 322/2/4
f 319/2/4 320/2/4 323/2/4
f 323/2/4 320/2/4 324/2/4
f 325/3/4 326/3/4 327/3/4
f 327/3/4 326/3/4 328/3/4
f 329/2/4 330/2/4 332/2/4
f 332/2/4 330/2/4 333/2/4
f 331/3/4 332/3/4 335/3/4
f 335/3/4 332/3/4 336/3/4
f 333/3/4 334/3/4 337/3/4
f 337/3/4 334/3/4 338/3/4
f 336/2/4 337/2/4 339/2/4
f 339/2/4 337/2/4 340/2/4
f 341/2/4 342/2/4 343/2/4
f 343/2/4 342/2/4 344/2/4
f 341/2/4 343/2/4 345/2/4
f 341/2/4 345/2/4 347/2/4
f 345/2/4 346/2/4 347/2/4
f 347/2/4 346/2/4 348/2/4
f 349/3/4 350/3/4 351/3/4
f 351/3/4 350/3/4 352/3/4
f 355/3/5 354/3/5 353/3/5
f 356/3/5 354/3/5 355/3/5
f 357/3/5 355/3/5 353/3/5
f 358/3/5 354/3/5 356/3/5
f 359/3/5 357/3/5 353/3/5
f 359/3/5 358/3/5 357/3/5
f 360/3/5 354/3/5 358/3/5
f 360/3/5 358/3/5 359/3/5
f 363/2/5 362/2/5 361/2/5
f 364/2/5 362/2/5 363/2/5
f 365/2/5 363/2/5 361/2/5
f 366/2/5 362/2/5 364/2/5
f 367/2/5 365/2/5 361/2/5
f 367/2/5 366/2/5 365/2/5
f 368/2/5 362/2/5 366/2/5
f 368/2/5 366/2/5 367/2/5
f 371/3/5 370/3/5 369/3/5
f 372/3/5 370/3/5 371/3/5
f 373/3/5 371/3/5 369/3/5
f 374/3/5 370/3/5 372/3/5
f 375/3/5 373/3/5 369/3/5
f 375/3/5 374/3/5 373/3/5
f 376/3/5 370/3/5 374/3/5
f 376/3/5 374/3/5 375/3/5
f 380/2/5 378/2/5 377/2/5
f 381/2/5 378/2/5 380/2/5
f 383/2/5 380/2/5 379/2/5
f 384/2/5 380/2/5 383/2/5
f 385/2/5 382/2/5 381/2/5
f 386/2/5 382/2/5 385/2/5
f 387/2/5 385/2/5 384/2/5
f 388/2/5 385/2/5 387/2/5
f 391/3/5 390/3/5 389/3/5
f 392/3/5 390/3/5 391/3/5
f 397/3/5 394/3/5 393/3/5
f 398/3/5 394/3/5 397/3/5
f 399/3/5 396/3/5 395/3/5
f 400/3/5 396/3/5 399/3/5
f 403/3/5 402/3/5 401/3/5
f 404/3/5 402/3/5 403/3/5
f 409/2/5 406/2/5 405/2/5
f 410/2/5 406/2/5 409/2/5
f 411/2/5 408/2/5 407/2/5
f 412/2/5 408/2/5 411/2/5
f 415/2/5 414/2/5 413/2/5
f 416/2/5 414/2/5 415/2/5
f 419/1/5 416/1/5 415/1/5
f 420/1/5 416/1/5 419/1/5
f 423/2/5 418/2/5 417/2/5
f 424/1/5 419/1/5 418/1/5
f 424/2/5 418/2/5 423/2/5
f 425/1/5 419/1/5 424/1/5
f 426/1/5 421/1/5 420/1/5
f 427/2/5 422/2/5 421/2/5
f 427/1/5 421/1/5 426/1/5
f 428/2/5 422/2/5 427/2/5
f 429/1/5 426/1/5 425/1/5
f 430/1/5 426/1/5 429/1/5
f 431/2/5 430/2/5 429/2/5
f 432/2/5 430/2/5 431/2/5
f 435/2/5 434/2/5 433/2/5
f 436/2/5 434/2/5 435/2/5
f 437/2/5 435/2/5 433/2/5
f 437/1/5 436/1/5 435/1/5
f 438/2/5 434/2/5 436/2/5
f 438/1/5 436/1/5 437/1/5
f 439/2/5 437/2/5 433/2/5
f 439/2/5 438/2/5 437/2/5
f 440/2/5 434/2/5 438/2/5
f 440/2/5 438/2/5 439/2/5
f 441/2/6 442/2/6 443/2/6
f 443/2/6 442/2/6 444/2/6
f 443/1/6 444/1/6 445/1/6
f 445/1/6 444/1/6 446/1/6
f 443/1/6 445/1/6 447/1/6
f 446/1/6 444/1/6 448/1/6
f 441/2/6 443/2/6 449/2/6
f 447/1/6 448/1/6 449/1/6
f 443/1/6 447/1/6 449/1/6
f 448/1/6 444/1/6 450/1/6
f 449/1/6 448/1/6 450/1/6
f 444/2/6 442/2/6 450/2/6
f 441/2/6 449/2/6 451/2/6
f 449/2/6 450/2/6 451/2/6
f 450/2/6 442/2/6 452/2/6
f 451/2/6 450/2/6 452/2/6
f 453/2/6 454/2/6 455/2/6
f 455/2/6 454/2/6 456/2/6
f 455/1/6 456/1/6 459/1/6
f 459/1/6 456/1/6 460/1/6
f 457/2/6 458/2/6 463/2/6
f 458/1/6 459/1/6 464/1/6
f 463/2/6 458/2/6 464/2/6
f 464/1/6 459/1/6 465/1/6
f 460/1/6 461/1/6 466/1/6
f 461/2/6 462/2/6 467/2/6
f 466/1/6 461/1/6 467/1/6
f 467/2/6 462/2/6 468/2/6
f 465/1/6 466/1/6 469/1/6
f 469/1/6 466/1/6 470/1/6
f 469/2/6 470/2/6 471/2/6
f 471/2/6 470/2/6 472/2/6
f 473/2/6 474/2/6 477/2/6
f 477/2/6 474/2/6 478/2/6
f 475/2/6 476/2/6 479/2/6
f 479/2/6 476/2/6 480/2/6
f 481/3/6 482/3/6 483/3/6
f 483/3/6 482/3/6 484/3/6
f 485/3/6 486/3/6 489/3/6
f 489/3/6 486/3/6 490/3/6
f 487/3/6 488/3/6 491/3/6
f 491/3/6 488/3/6 492/3/6
f 493/2/6 494/2/6 496/2/6
f 496/2/6 494/2/6 497/2/6
f 495/2/6 496/2/6 499/2/6
f 499/2/6 496/2/6 500/2/6
f 497/2/6 498/2/6 501/2/6
f 501/2/6 498/2/6 502/2/6
f 500/2/6 501/2/6 503/2/6
f 503/2/6 501/2/6 504/2/6
f 504/2/6 501/2/6 505/2/6
f 505/2/6 501/2/6 506/2/6
f 504/3/6 505/3/6 507/3/6
f 507/3/6 505/3/6 508/3/6
f 509/3/6 510/3/6 511/3/6
f 511/3/6 510/3/6 512/3/6
f 509/3/6 511/3/6 513/3/6
f 512/3/6 510/3/6 514/3/6
f 509/3/6 513/3/6 515/3/6
f 513/3/6 514/3/6 515/3/6
f 514/3/6 510/3/6 516/3/6
f 515/3/6 514/3/6 516/3/6
f 517/2/6 518/2/6 519/2/6
f 519/2/6 518/2/6 520/2/6
f 517/2/6 519/2/6 521/2/6
f 520/2/6 518/2/6 522/2/6
f 517/2/6 521/2/6 523/2/6
f 521/2/6 522/2/6 523/2/6
f 522/2/6 518/2/6 524/2/6
f 523/2/6 522/2/6 524/2/6
f 525/2/6 526/2/6 527/2/6
f 527/2/6 526/2/6 528/2/6
