# MagicaVoxel @ Ephtracy

# group
o 

# material
mtllib SueloNormalEspecial.mtl
usemtl palette

# normals
vn -1 0 0
vn 1 0 0
vn 0 0 1
vn 0 0 -1
vn 0 -1 0
vn 0 1 0

# texcoords
vt 0.0722656 0.5
vt 0.0800781 0.5
vt 0.533203 0.5
vt 0.544922 0.5
vt 0.927734 0.5
vt 0.931641 0.5

# verts
v -1 0 1
v -1 0 0.7
v -1 0 0.5
v -1 0 -0.3
v -1 0 -0.9
v -1 0 -1
v -1 0.1 1
v -1 0.1 0.7
v -1 0.1 0.5
v -1 0.1 -0.3
v -1 0.2 1
v -1 0.2 0.7
v -1 0.2 0.1
v -1 0.2 -0.9
v -1 0.3 1
v -1 0.3 0.7
v -1 0.3 0.4
v -1 0.3 0.2
v -1 0.3 0.1
v -1 0.3 -1
v -1 0.5 1
v -1 0.5 0.4
v -1 0.5 0.2
v -1 0.5 -1
v 1 0 1
v 1 0 0.8
v 1 0 0.6
v 1 0 0.2
v 1 0 -0.1
v 1 0 -0.5
v 1 0 -1
v 1 0.1 0.2
v 1 0.1 -0.1
v 1 0.1 -0.5
v 1 0.1 -1
v 1 0.2 1
v 1 0.2 0.9
v 1 0.2 0.8
v 1 0.2 0.6
v 1 0.2 0.4
v 1 0.2 -0.8
v 1 0.3 1
v 1 0.3 0.9
v 1 0.3 0.4
v 1 0.3 0.2
v 1 0.3 -0.8
v 1 0.3 -1
v 1 0.5 1
v 1 0.5 0.4
v 1 0.5 0.2
v 1 0.5 -1
v -1 0 1
v -1 0.1 1
v -1 0.2 1
v -1 0.3 1
v -1 0.5 1
v -0.9 0.3 1
v -0.9 0.5 1
v -0.7 0 1
v -0.7 0.1 1
v -0.7 0.2 1
v -0.7 0.3 1
v -0.6 0.3 1
v -0.6 0.5 1
v -0.4 0.1 1
v -0.4 0.3 1
v -0.1 0.3 1
v -0.1 0.5 1
v 0 0.1 1
v 0 0.2 1
v 0.2 0 1
v 0.2 0.1 1
v 0.3 0.3 1
v 0.3 0.5 1
v 0.4 0.1 1
v 0.4 0.2 1
v 0.5 0 1
v 0.5 0.2 1
v 0.6 0.3 1
v 0.6 0.5 1
v 0.7 0 1
v 0.7 0.2 1
v 0.9 0 1
v 0.9 0.2 1
v 0.9 0.3 1
v 0.9 0.5 1
v 1 0 1
v 1 0.2 1
v 1 0.3 1
v 1 0.5 1
v -1 0 -1
v -1 0.3 -1
v -1 0.5 -1
v -0.9 0.3 -1
v -0.9 0.5 -1
v -0.8 0 -1
v -0.8 0.2 -1
v -0.6 0 -1
v -0.6 0.1 -1
v -0.6 0.3 -1
v -0.6 0.5 -1
v -0.4 0 -1
v -0.4 0.1 -1
v -0.4 0.2 -1
v -0.4 0.3 -1
v -0.1 0 -1
v -0.1 0.3 -1
v 0 0.1 -1
v 0 0.2 -1
v 0.3 0 -1
v 0.3 0.1 -1
v 0.6 0 -1
v 0.6 0.1 -1
v 0.6 0.3 -1
v 0.6 0.5 -1
v 0.9 0.2 -1
v 0.9 0.3 -1
v 0.9 0.5 -1
v 1 0 -1
v 1 0.1 -1
v 1 0.3 -1
v 1 0.5 -1
v -1 0 1
v -0.7 0 1
v 0.2 0 1
v 0.5 0 1
v 0.7 0 1
v 0.9 0 1
v 1 0 1
v -0.9 0 0.9
v -0.7 0 0.9
v 0.2 0 0.9
v 0.5 0 0.9
v 0.7 0 0.9
v 0.9 0 0.9
v 0.9 0 0.8
v 1 0 0.8
v -1 0 0.7
v -0.9 0 0.7
v 0.9 0 0.6
v 1 0 0.6
v -1 0 0.5
v -0.9 0 0.5
v 0.9 0 0.2
v 1 0 0.2
v 0.9 0 -0.1
v 1 0 -0.1
v -1 0 -0.3
v -0.9 0 -0.3
v 0.9 0 -0.5
v 1 0 -0.5
v -1 0 -0.9
v -0.8 0 -0.9
v -0.6 0 -0.9
v -0.4 0 -0.9
v -0.1 0 -0.9
v 0.3 0 -0.9
v 0.6 0 -0.9
v 0.9 0 -0.9
v -1 0 -1
v -0.8 0 -1
v -0.6 0 -1
v -0.4 0 -1
v -0.1 0 -1
v 0.3 0 -1
v 0.6 0 -1
v 1 0 -1
v -1 0.5 1
v -0.9 0.5 1
v -0.6 0.5 1
v -0.1 0.5 1
v 0.3 0.5 1
v 0.6 0.5 1
v 0.9 0.5 1
v 1 0.5 1
v -0.6 0.5 0.9
v -0.4 0.5 0.9
v -0.8 0.5 0.8
v -0.6 0.5 0.8
v -0.4 0.5 0.8
v -0.3 0.5 0.8
v 0.3 0.5 0.8
v 0.5 0.5 0.8
v 0.6 0.5 0.8
v 0.7 0.5 0.8
v 0.8 0.5 0.8
v 0.9 0.5 0.8
v -0.8 0.5 0.7
v -0.7 0.5 0.7
v -0.6 0.5 0.7
v -0.4 0.5 0.7
v -0.3 0.5 0.7
v 0.3 0.5 0.7
v 0.5 0.5 0.7
v 0.7 0.5 0.7
v 0.8 0.5 0.7
v -0.6 0.5 0.6
v -0.4 0.5 0.6
v -0.1 0.5 0.6
v 0.3 0.5 0.6
v 0.4 0.5 0.6
v 0.6 0.5 0.6
v 0.7 0.5 0.6
v 0.8 0.5 0.6
v -0.9 0.5 0.5
v -0.8 0.5 0.5
v -0.7 0.5 0.5
v -0.6 0.5 0.5
v -0.5 0.5 0.5
v -0.3 0.5 0.5
v 0.2 0.5 0.5
v 0.3 0.5 0.5
v -1 0.5 0.4
v -0.8 0.5 0.4
v -0.7 0.5 0.4
v -0.6 0.5 0.4
v -0.5 0.5 0.4
v -0.4 0.5 0.4
v -0.3 0.5 0.4
v 0.1 0.5 0.4
v 0.2 0.5 0.4
v 0.3 0.5 0.4
v 0.4 0.5 0.4
v 0.5 0.5 0.4
v 0.6 0.5 0.4
v 0.7 0.5 0.4
v 0.8 0.5 0.4
v 1 0.5 0.4
v -0.8 0.5 0.3
v -0.7 0.5 0.3
v -0.5 0.5 0.3
v -0.4 0.5 0.3
v -0.3 0.5 0.3
v -0.1 0.5 0.3
v 0.2 0.5 0.3
v 0.3 0.5 0.3
v 0.4 0.5 0.3
v 0.5 0.5 0.3
v 0.7 0.5 0.3
v 0.8 0.5 0.3
v -1 0.5 0.2
v -0.6 0.5 0.2
v -0.3 0.5 0.2
v -0.2 0.5 0.2
v 0 0.5 0.2
v 0.1 0.5 0.2
v 0.2 0.5 0.2
v 0.3 0.5 0.2
v 0.4 0.5 0.2
v 0.5 0.5 0.2
v 0.8 0.5 0.2
v 1 0.5 0.2
v -0.3 0.5 0.1
v -0.2 0.5 0.1
v -0.1 0.5 0.1
v 0 0.5 0.1
v 0.1 0.5 0.1
v -0.8 0.5 0
v -0.5 0.5 0
v -0.3 0.5 0
v -0.2 0.5 0
v 0 0.5 0
v 0.1 0.5 0
v 0.2 0.5 0
v 0.5 0.5 0
v 0.9 0.5 0
v 0.1 0.5 -0.1
v 0.3 0.5 -0.1
v -0.3 0.5 -0.2
v -0.2 0.5 -0.2
v 0 0.5 -0.2
v 0.1 0.5 -0.2
v 0.2 0.5 -0.2
v -0.8 0.5 -0.3
v -0.7 0.5 -0.3
v -0.5 0.5 -0.3
v -0.4 0.5 -0.3
v -0.3 0.5 -0.3
v -0.2 0.5 -0.3
v 0.1 0.5 -0.3
v 0.2 0.5 -0.3
v 0.3 0.5 -0.3
v 0.4 0.5 -0.3
v 0.5 0.5 -0.3
v 0.7 0.5 -0.3
v 0.8 0.5 -0.3
v -0.9 0.5 -0.4
v -0.8 0.5 -0.4
v -0.7 0.5 -0.4
v -0.6 0.5 -0.4
v -0.5 0.5 -0.4
v -0.4 0.5 -0.4
v -0.3 0.5 -0.4
v 0.3 0.5 -0.4
v 0.4 0.5 -0.4
v 0.5 0.5 -0.4
v 0.6 0.5 -0.4
v 0.7 0.5 -0.4
v 0.8 0.5 -0.4
v 0.9 0.5 -0.4
v -0.5 0.5 -0.5
v -0.4 0.5 -0.5
v -0.3 0.5 -0.5
v 0.3 0.5 -0.5
v 0.4 0.5 -0.5
v 0.5 0.5 -0.5
v -0.6 0.5 -0.6
v -0.4 0.5 -0.6
v 0.4 0.5 -0.6
v 0.5 0.5 -0.6
v 0.6 0.5 -0.6
v 0.7 0.5 -0.6
v 0.8 0.5 -0.6
v -0.7 0.5 -0.7
v -0.4 0.5 -0.7
v -0.3 0.5 -0.7
v 0.3 0.5 -0.7
v 0.7 0.5 -0.7
v -0.8 0.5 -0.8
v -0.6 0.5 -0.8
v -0.4 0.5 -0.8
v -0.3 0.5 -0.8
v 0.3 0.5 -0.8
v 0.6 0.5 -0.8
v 0.7 0.5 -0.8
v 0.8 0.5 -0.8
v 0.9 0.5 -0.8
v -0.3 0.5 -0.9
v 0.3 0.5 -0.9
v -1 0.5 -1
v -0.9 0.5 -1
v -0.6 0.5 -1
v 0.6 0.5 -1
v 0.9 0.5 -1
v 1 0.5 -1

# faces
f 7/2/1 2/2/1 1/2/1
f 8/1/1 3/1/1 2/1/1
f 8/2/1 2/2/1 7/2/1
f 9/2/1 4/2/1 3/2/1
f 9/1/1 3/1/1 8/1/1
f 10/1/1 5/1/1 4/1/1
f 10/2/1 4/2/1 9/2/1
f 11/1/1 8/1/1 7/1/1
f 11/1/1 9/1/1 8/1/1
f 11/1/1 10/1/1 9/1/1
f 12/1/1 10/1/1 11/1/1
f 13/1/1 10/1/1 12/1/1
f 14/2/1 6/2/1 5/2/1
f 14/1/1 10/1/1 13/1/1
f 14/1/1 5/1/1 10/1/1
f 15/2/1 12/2/1 11/2/1
f 16/1/1 13/1/1 12/1/1
f 16/2/1 12/2/1 15/2/1
f 17/1/1 13/1/1 16/1/1
f 18/1/1 13/1/1 17/1/1
f 19/2/1 14/2/1 13/2/1
f 19/1/1 13/1/1 18/1/1
f 20/2/1 6/2/1 14/2/1
f 20/2/1 14/2/1 19/2/1
f 21/6/1 16/6/1 15/6/1
f 21/6/1 17/6/1 16/6/1
f 22/5/1 18/5/1 17/5/1
f 22/6/1 17/6/1 21/6/1
f 23/6/1 19/6/1 18/6/1
f 23/5/1 18/5/1 22/5/1
f 23/6/1 20/6/1 19/6/1
f 24/6/1 20/6/1 23/6/1
f 27/1/2 28/1/2 32/1/2
f 28/2/2 29/2/2 32/2/2
f 29/1/2 30/1/2 33/1/2
f 32/2/2 29/2/2 33/2/2
f 30/2/2 31/2/2 34/2/2
f 33/1/2 30/1/2 34/1/2
f 34/2/2 31/2/2 35/2/2
f 25/1/2 26/1/2 36/1/2
f 36/1/2 26/1/2 37/1/2
f 26/2/2 27/2/2 38/2/2
f 37/1/2 26/1/2 38/1/2
f 32/1/2 33/1/2 39/1/2
f 38/2/2 27/2/2 39/2/2
f 27/1/2 32/1/2 39/1/2
f 33/1/2 34/1/2 39/1/2
f 34/1/2 35/1/2 39/1/2
f 39/1/2 35/1/2 40/1/2
f 40/1/2 35/1/2 41/1/2
f 36/2/2 37/2/2 42/2/2
f 37/1/2 38/1/2 43/1/2
f 42/2/2 37/2/2 43/2/2
f 38/1/2 39/1/2 43/1/2
f 39/1/2 40/1/2 43/1/2
f 40/2/2 41/2/2 44/2/2
f 43/1/2 40/1/2 44/1/2
f 44/2/2 41/2/2 45/2/2
f 41/1/2 35/1/2 46/1/2
f 45/2/2 41/2/2 46/2/2
f 46/1/2 35/1/2 47/1/2
f 42/6/2 43/6/2 48/6/2
f 43/6/2 44/6/2 48/6/2
f 44/5/2 45/5/2 49/5/2
f 48/6/2 44/6/2 49/6/2
f 46/6/2 47/6/2 50/6/2
f 49/5/2 45/5/2 50/5/2
f 45/6/2 46/6/2 50/6/2
f 50/6/2 47/6/2 51/6/2
f 57/2/3 55/2/3 54/2/3
f 57/6/3 56/6/3 55/6/3
f 58/6/3 56/6/3 57/6/3
f 59/2/3 53/2/3 52/2/3
f 60/1/3 54/1/3 53/1/3
f 60/2/3 53/2/3 59/2/3
f 61/2/3 57/2/3 54/2/3
f 61/1/3 54/1/3 60/1/3
f 62/5/3 58/5/3 57/5/3
f 62/2/3 57/2/3 61/2/3
f 63/1/3 60/1/3 59/1/3
f 63/5/3 58/5/3 62/5/3
f 63/1/3 62/1/3 61/1/3
f 63/1/3 61/1/3 60/1/3
f 64/5/3 58/5/3 63/5/3
f 65/1/3 63/1/3 59/1/3
f 66/6/3 64/6/3 63/6/3
f 66/1/3 63/1/3 65/1/3
f 67/2/3 66/2/3 65/2/3
f 67/6/3 64/6/3 66/6/3
f 68/6/3 64/6/3 67/6/3
f 69/1/3 65/1/3 59/1/3
f 69/2/3 67/2/3 65/2/3
f 70/2/3 67/2/3 69/2/3
f 71/1/3 69/1/3 59/1/3
f 71/1/3 70/1/3 69/1/3
f 72/1/3 70/1/3 71/1/3
f 73/5/3 68/5/3 67/5/3
f 73/2/3 67/2/3 70/2/3
f 74/5/3 68/5/3 73/5/3
f 75/1/3 70/1/3 72/1/3
f 75/2/3 72/2/3 71/2/3
f 76/2/3 73/2/3 70/2/3
f 76/1/3 70/1/3 75/1/3
f 77/2/3 75/2/3 71/2/3
f 77/2/3 76/2/3 75/2/3
f 78/2/3 73/2/3 76/2/3
f 78/2/3 76/2/3 77/2/3
f 79/6/3 74/6/3 73/6/3
f 79/2/3 73/2/3 78/2/3
f 80/6/3 74/6/3 79/6/3
f 81/1/3 78/1/3 77/1/3
f 82/2/3 79/2/3 78/2/3
f 82/1/3 78/1/3 81/1/3
f 83/2/3 82/2/3 81/2/3
f 84/2/3 79/2/3 82/2/3
f 84/2/3 82/2/3 83/2/3
f 85/5/3 80/5/3 79/5/3
f 85/2/3 79/2/3 84/2/3
f 86/5/3 80/5/3 85/5/3
f 87/1/3 84/1/3 83/1/3
f 88/2/3 85/2/3 84/2/3
f 88/1/3 84/1/3 87/1/3
f 89/6/3 86/6/3 85/6/3
f 89/2/3 85/2/3 88/2/3
f 90/6/3 86/6/3 89/6/3
f 91/2/4 92/2/4 94/2/4
f 92/6/4 93/6/4 94/6/4
f 94/6/4 93/6/4 95/6/4
f 91/2/4 94/2/4 96/2/4
f 96/2/4 94/2/4 97/2/4
f 96/1/4 97/1/4 98/1/4
f 98/1/4 97/1/4 99/1/4
f 94/5/4 95/5/4 100/5/4
f 97/2/4 94/2/4 100/2/4
f 100/5/4 95/5/4 101/5/4
f 98/2/4 99/2/4 102/2/4
f 99/1/4 97/1/4 103/1/4
f 102/2/4 99/2/4 103/2/4
f 97/2/4 100/2/4 104/2/4
f 103/1/4 97/1/4 104/1/4
f 100/6/4 101/6/4 105/6/4
f 104/2/4 100/2/4 105/2/4
f 102/1/4 103/1/4 106/1/4
f 103/1/4 104/1/4 106/1/4
f 104/1/4 105/1/4 106/1/4
f 105/6/4 101/6/4 107/6/4
f 106/1/4 105/1/4 107/1/4
f 106/2/4 107/2/4 108/2/4
f 108/2/4 107/2/4 109/2/4
f 106/2/4 108/2/4 110/2/4
f 108/1/4 109/1/4 111/1/4
f 110/2/4 108/2/4 111/2/4
f 110/1/4 111/1/4 112/1/4
f 111/1/4 109/1/4 113/1/4
f 112/1/4 111/1/4 113/1/4
f 107/6/4 101/6/4 114/6/4
f 109/2/4 107/2/4 114/2/4
f 114/6/4 101/6/4 115/6/4
f 113/1/4 109/1/4 116/1/4
f 109/2/4 114/2/4 116/2/4
f 114/5/4 115/5/4 117/5/4
f 116/2/4 114/2/4 117/2/4
f 117/5/4 115/5/4 118/5/4
f 112/2/4 113/2/4 119/2/4
f 113/1/4 116/1/4 120/1/4
f 119/2/4 113/2/4 120/2/4
f 116/1/4 117/1/4 120/1/4
f 117/6/4 118/6/4 121/6/4
f 120/1/4 117/1/4 121/1/4
f 121/6/4 118/6/4 122/6/4
f 130/2/5 124/2/5 123/2/5
f 131/1/5 125/1/5 124/1/5
f 131/2/5 124/2/5 130/2/5
f 132/2/5 126/2/5 125/2/5
f 132/1/5 125/1/5 131/1/5
f 133/1/5 127/1/5 126/1/5
f 133/2/5 126/2/5 132/2/5
f 134/2/5 128/2/5 127/2/5
f 134/1/5 127/1/5 133/1/5
f 135/1/5 129/1/5 128/1/5
f 135/2/5 128/2/5 134/2/5
f 136/1/5 134/1/5 133/1/5
f 136/1/5 129/1/5 135/1/5
f 136/1/5 135/1/5 134/1/5
f 136/1/5 133/1/5 132/1/5
f 136/1/5 132/1/5 131/1/5
f 136/1/5 131/1/5 130/1/5
f 137/1/5 129/1/5 136/1/5
f 138/2/5 130/2/5 123/2/5
f 139/1/5 136/1/5 130/1/5
f 139/2/5 130/2/5 138/2/5
f 140/2/5 137/2/5 136/2/5
f 140/1/5 136/1/5 139/1/5
f 140/1/5 139/1/5 138/1/5
f 141/2/5 137/2/5 140/2/5
f 142/1/5 140/1/5 138/1/5
f 142/1/5 141/1/5 140/1/5
f 143/1/5 141/1/5 142/1/5
f 144/1/5 141/1/5 143/1/5
f 145/1/5 141/1/5 144/1/5
f 146/1/5 144/1/5 143/1/5
f 146/2/5 145/2/5 144/2/5
f 147/2/5 145/2/5 146/2/5
f 148/2/5 143/2/5 142/2/5
f 149/1/5 146/1/5 143/1/5
f 149/2/5 143/2/5 148/2/5
f 149/1/5 147/1/5 146/1/5
f 150/1/5 149/1/5 148/1/5
f 150/1/5 147/1/5 149/1/5
f 151/1/5 147/1/5 150/1/5
f 152/1/5 150/1/5 148/1/5
f 153/1/5 150/1/5 152/1/5
f 154/1/5 150/1/5 153/1/5
f 155/1/5 150/1/5 154/1/5
f 156/1/5 150/1/5 155/1/5
f 157/1/5 150/1/5 156/1/5
f 158/1/5 150/1/5 157/1/5
f 159/2/5 151/2/5 150/2/5
f 159/1/5 150/1/5 158/1/5
f 160/2/5 153/2/5 152/2/5
f 161/1/5 154/1/5 153/1/5
f 161/2/5 153/2/5 160/2/5
f 162/2/5 155/2/5 154/2/5
f 162/1/5 154/1/5 161/1/5
f 163/1/5 156/1/5 155/1/5
f 163/2/5 155/2/5 162/2/5
f 164/2/5 157/2/5 156/2/5
f 164/1/5 156/1/5 163/1/5
f 165/1/5 158/1/5 157/1/5
f 165/2/5 157/2/5 164/2/5
f 166/2/5 159/2/5 158/2/5
f 166/1/5 158/1/5 165/1/5
f 167/2/5 151/2/5 159/2/5
f 167/2/5 159/2/5 166/2/5
f 169/5/6 170/5/6 176/5/6
f 170/6/6 171/6/6 176/6/6
f 176/6/6 171/6/6 177/6/6
f 169/5/6 176/5/6 178/5/6
f 176/5/6 177/5/6 178/5/6
f 178/5/6 177/5/6 179/5/6
f 177/6/6 171/6/6 180/6/6
f 179/5/6 177/5/6 180/5/6
f 180/6/6 171/6/6 181/6/6
f 171/5/6 172/5/6 182/5/6
f 172/6/6 173/6/6 182/6/6
f 182/6/6 173/6/6 183/6/6
f 173/5/6 174/5/6 184/5/6
f 183/6/6 173/6/6 184/6/6
f 184/5/6 174/5/6 185/5/6
f 185/5/6 174/5/6 186/5/6
f 174/6/6 175/6/6 187/6/6
f 186/5/6 174/5/6 187/5/6
f 178/3/6 179/3/6 188/3/6
f 169/5/6 178/5/6 188/5/6
f 188/3/6 179/3/6 189/3/6
f 180/4/6 181/4/6 190/4/6
f 189/3/6 179/3/6 190/3/6
f 179/4/6 180/4/6 190/4/6
f 190/4/6 181/4/6 191/4/6
f 181/6/6 171/6/6 192/6/6
f 191/4/6 181/4/6 192/4/6
f 182/4/6 183/4/6 193/4/6
f 171/5/6 182/5/6 193/5/6
f 183/3/6 184/3/6 194/3/6
f 193/4/6 183/4/6 194/4/6
f 184/3/6 185/3/6 194/3/6
f 185/4/6 186/4/6 195/4/6
f 194/3/6 185/3/6 195/3/6
f 186/6/6 187/6/6 196/6/6
f 195/4/6 186/4/6 196/4/6
f 190/5/6 191/5/6 197/5/6
f 189/5/6 190/5/6 197/5/6
f 191/6/6 192/6/6 198/6/6
f 197/5/6 191/5/6 198/5/6
f 192/6/6 171/6/6 199/6/6
f 198/6/6 192/6/6 199/6/6
f 171/5/6 193/5/6 199/5/6
f 193/6/6 194/6/6 200/6/6
f 199/5/6 193/5/6 200/5/6
f 194/6/6 195/6/6 200/6/6
f 200/6/6 195/6/6 201/6/6
f 201/6/6 195/6/6 202/6/6
f 195/3/6 196/3/6 203/3/6
f 202/6/6 195/6/6 203/6/6
f 196/6/6 187/6/6 204/6/6
f 203/3/6 196/3/6 204/3/6
f 168/6/6 169/6/6 205/6/6
f 169/5/6 188/5/6 205/5/6
f 188/4/6 189/4/6 206/4/6
f 205/5/6 188/5/6 206/5/6
f 189/5/6 197/5/6 207/5/6
f 206/4/6 189/4/6 207/4/6
f 197/3/6 198/3/6 208/3/6
f 207/5/6 197/5/6 208/5/6
f 208/3/6 198/3/6 209/3/6
f 198/6/6 199/6/6 210/6/6
f 199/6/6 200/6/6 210/6/6
f 200/6/6 201/6/6 210/6/6
f 210/6/6 201/6/6 211/6/6
f 211/6/6 201/6/6 212/6/6
f 168/6/6 205/6/6 213/6/6
f 205/6/6 206/6/6 213/6/6
f 206/4/6 207/4/6 214/4/6
f 213/6/6 206/6/6 214/6/6
f 207/6/6 208/6/6 215/6/6
f 214/4/6 207/4/6 215/4/6
f 208/4/6 209/4/6 216/4/6
f 215/6/6 208/6/6 216/6/6
f 209/3/6 198/3/6 217/3/6
f 216/4/6 209/4/6 217/4/6
f 198/6/6 210/6/6 218/6/6
f 217/3/6 198/3/6 218/3/6
f 210/4/6 211/4/6 219/4/6
f 218/6/6 210/6/6 219/6/6
f 219/4/6 211/4/6 220/4/6
f 211/3/6 212/3/6 221/3/6
f 220/4/6 211/4/6 221/4/6
f 212/6/6 201/6/6 222/6/6
f 221/3/6 212/3/6 222/3/6
f 201/4/6 202/4/6 223/4/6
f 222/6/6 201/6/6 223/6/6
f 223/4/6 202/4/6 224/4/6
f 202/6/6 203/6/6 225/6/6
f 224/4/6 202/4/6 225/4/6
f 203/4/6 204/4/6 226/4/6
f 225/6/6 203/6/6 226/6/6
f 204/6/6 187/6/6 227/6/6
f 226/4/6 204/4/6 227/4/6
f 187/6/6 175/6/6 228/6/6
f 227/6/6 187/6/6 228/6/6
f 214/4/6 215/4/6 229/4/6
f 213/5/6 214/5/6 229/5/6
f 215/5/6 216/5/6 230/5/6
f 229/4/6 215/4/6 230/4/6
f 216/6/6 217/6/6 231/6/6
f 217/6/6 218/6/6 231/6/6
f 218/6/6 219/6/6 231/6/6
f 231/6/6 219/6/6 232/6/6
f 219/5/6 220/5/6 233/5/6
f 232/6/6 219/6/6 233/6/6
f 233/5/6 220/5/6 234/5/6
f 223/6/6 224/6/6 235/6/6
f 220/6/6 221/6/6 235/6/6
f 221/6/6 222/6/6 235/6/6
f 222/6/6 223/6/6 235/6/6
f 235/6/6 224/6/6 236/6/6
f 236/6/6 224/6/6 237/6/6
f 225/5/6 226/5/6 238/5/6
f 237/6/6 224/6/6 238/6/6
f 224/5/6 225/5/6 238/5/6
f 226/4/6 227/4/6 239/4/6
f 238/5/6 226/5/6 239/5/6
f 227/5/6 228/5/6 240/5/6
f 239/4/6 227/4/6 240/4/6
f 213/5/6 229/5/6 241/5/6
f 229/5/6 230/5/6 241/5/6
f 230/5/6 216/5/6 242/5/6
f 241/5/6 230/5/6 242/5/6
f 216/6/6 231/6/6 242/6/6
f 233/3/6 234/3/6 243/3/6
f 232/6/6 233/6/6 243/6/6
f 243/3/6 234/3/6 244/3/6
f 234/5/6 220/5/6 245/5/6
f 220/6/6 235/6/6 246/6/6
f 245/5/6 220/5/6 246/5/6
f 235/4/6 236/4/6 247/4/6
f 246/6/6 235/6/6 247/6/6
f 236/6/6 237/6/6 248/6/6
f 247/4/6 236/4/6 248/4/6
f 237/3/6 238/3/6 249/3/6
f 248/6/6 237/6/6 249/6/6
f 238/6/6 239/6/6 250/6/6
f 249/3/6 238/3/6 250/3/6
f 239/6/6 240/6/6 250/6/6
f 240/5/6 228/5/6 251/5/6
f 250/6/6 240/6/6 251/6/6
f 251/5/6 228/5/6 252/5/6
f 243/4/6 244/4/6 253/4/6
f 232/6/6 243/6/6 253/6/6
f 244/3/6 234/3/6 254/3/6
f 253/4/6 244/4/6 254/4/6
f 234/5/6 245/5/6 255/5/6
f 254/3/6 234/3/6 255/3/6
f 246/4/6 247/4/6 256/4/6
f 255/5/6 245/5/6 256/5/6
f 245/4/6 246/4/6 256/4/6
f 256/4/6 247/4/6 257/4/6
f 241/6/6 242/6/6 258/6/6
f 242/6/6 231/6/6 259/6/6
f 258/6/6 242/6/6 259/6/6
f 231/4/6 232/4/6 259/4/6
f 254/5/6 255/5/6 260/5/6
f 232/6/6 253/6/6 260/6/6
f 253/5/6 254/5/6 260/5/6
f 255/5/6 256/5/6 260/5/6
f 260/5/6 256/5/6 261/5/6
f 256/3/6 257/3/6 262/3/6
f 261/5/6 256/5/6 262/5/6
f 257/4/6 247/4/6 263/4/6
f 262/3/6 257/3/6 263/3/6
f 247/6/6 248/6/6 264/6/6
f 263/4/6 247/4/6 264/4/6
f 248/6/6 249/6/6 264/6/6
f 249/4/6 250/4/6 265/4/6
f 250/6/6 251/6/6 265/6/6
f 251/6/6 252/6/6 265/6/6
f 265/6/6 252/6/6 266/6/6
f 262/6/6 263/6/6 267/6/6
f 263/6/6 264/6/6 267/6/6
f 264/6/6 249/6/6 268/6/6
f 267/6/6 264/6/6 268/6/6
f 260/6/6 261/6/6 269/6/6
f 232/6/6 260/6/6 269/6/6
f 261/4/6 262/4/6 270/4/6
f 269/6/6 261/6/6 270/6/6
f 262/6/6 267/6/6 271/6/6
f 270/4/6 262/4/6 271/4/6
f 267/3/6 268/3/6 272/3/6
f 271/6/6 267/6/6 272/6/6
f 272/3/6 268/3/6 273/3/6
f 258/5/6 259/5/6 274/5/6
f 241/6/6 258/6/6 274/6/6
f 274/5/6 259/5/6 275/5/6
f 259/4/6 232/4/6 276/4/6
f 275/5/6 259/5/6 276/5/6
f 232/6/6 269/6/6 277/6/6
f 276/4/6 232/4/6 277/4/6
f 269/4/6 270/4/6 278/4/6
f 277/6/6 269/6/6 278/6/6
f 270/5/6 271/5/6 279/5/6
f 278/4/6 270/4/6 279/4/6
f 271/5/6 272/5/6 279/5/6
f 272/4/6 273/4/6 280/4/6
f 279/5/6 272/5/6 280/5/6
f 273/3/6 268/3/6 281/3/6
f 280/4/6 273/4/6 281/4/6
f 268/6/6 249/6/6 282/6/6
f 281/3/6 268/3/6 282/3/6
f 249/4/6 265/4/6 283/4/6
f 282/6/6 249/6/6 283/6/6
f 265/5/6 266/5/6 284/5/6
f 283/4/6 265/4/6 284/4/6
f 284/5/6 266/5/6 285/5/6
f 285/5/6 266/5/6 286/5/6
f 241/6/6 274/6/6 287/6/6
f 274/3/6 275/3/6 288/3/6
f 287/6/6 274/6/6 288/6/6
f 276/6/6 277/6/6 289/6/6
f 288/3/6 275/3/6 289/3/6
f 275/6/6 276/6/6 289/6/6
f 277/6/6 278/6/6 289/6/6
f 289/6/6 278/6/6 290/6/6
f 290/6/6 278/6/6 291/6/6
f 291/6/6 278/6/6 292/6/6
f 279/5/6 280/5/6 293/5/6
f 292/6/6 278/6/6 293/6/6
f 278/5/6 279/5/6 293/5/6
f 280/5/6 281/5/6 293/5/6
f 281/5/6 282/5/6 293/5/6
f 282/6/6 283/6/6 294/6/6
f 293/5/6 282/5/6 294/5/6
f 283/6/6 284/6/6 294/6/6
f 294/6/6 284/6/6 295/6/6
f 284/5/6 285/5/6 296/5/6
f 295/6/6 284/6/6 296/6/6
f 296/5/6 285/5/6 297/5/6
f 285/4/6 286/4/6 298/4/6
f 297/5/6 285/5/6 298/5/6
f 286/5/6 266/5/6 299/5/6
f 298/4/6 286/4/6 299/4/6
f 266/6/6 252/6/6 300/6/6
f 299/5/6 266/5/6 300/5/6
f 291/4/6 292/4/6 301/4/6
f 290/3/6 291/3/6 301/3/6
f 292/6/6 293/6/6 302/6/6
f 301/4/6 292/4/6 302/4/6
f 293/4/6 294/4/6 303/4/6
f 302/6/6 293/6/6 303/6/6
f 294/6/6 295/6/6 304/6/6
f 303/4/6 294/4/6 304/4/6
f 296/3/6 297/3/6 305/3/6
f 304/6/6 295/6/6 305/6/6
f 295/3/6 296/3/6 305/3/6
f 305/3/6 297/3/6 306/3/6
f 290/3/6 301/3/6 307/3/6
f 289/6/6 290/6/6 307/6/6
f 301/3/6 302/3/6 307/3/6
f 302/6/6 303/6/6 308/6/6
f 307/3/6 302/3/6 308/3/6
f 305/4/6 306/4/6 309/4/6
f 304/6/6 305/6/6 309/6/6
f 306/3/6 297/3/6 310/3/6
f 309/4/6 306/4/6 310/4/6
f 297/6/6 298/6/6 311/6/6
f 310/3/6 297/3/6 311/3/6
f 298/4/6 299/4/6 312/4/6
f 311/6/6 298/6/6 312/6/6
f 299/6/6 300/6/6 313/6/6
f 312/4/6 299/4/6 313/4/6
f 289/6/6 307/6/6 314/6/6
f 288/4/6 289/4/6 314/4/6
f 307/6/6 308/6/6 314/6/6
f 308/6/6 303/6/6 315/6/6
f 314/6/6 308/6/6 315/6/6
f 303/5/6 304/5/6 316/5/6
f 315/6/6 303/6/6 316/6/6
f 311/6/6 312/6/6 317/6/6
f 316/5/6 304/5/6 317/5/6
f 310/6/6 311/6/6 317/6/6
f 309/6/6 310/6/6 317/6/6
f 304/6/6 309/6/6 317/6/6
f 312/3/6 313/3/6 318/3/6
f 317/6/6 312/6/6 318/6/6
f 287/5/6 288/5/6 319/5/6
f 314/4/6 315/4/6 319/4/6
f 288/4/6 314/4/6 319/4/6
f 319/4/6 315/4/6 320/4/6
f 315/3/6 316/3/6 321/3/6
f 320/4/6 315/4/6 321/4/6
f 316/5/6 317/5/6 322/5/6
f 321/3/6 316/3/6 322/3/6
f 317/4/6 318/4/6 323/4/6
f 322/5/6 317/5/6 323/5/6
f 323/4/6 318/4/6 324/4/6
f 318/3/6 313/3/6 325/3/6
f 324/4/6 318/4/6 325/4/6
f 313/6/6 300/6/6 326/6/6
f 325/3/6 313/3/6 326/3/6
f 300/6/6 252/6/6 327/6/6
f 326/6/6 300/6/6 327/6/6
f 320/6/6 321/6/6 328/6/6
f 321/6/6 322/6/6 328/6/6
f 322/5/6 323/5/6 328/5/6
f 323/6/6 324/6/6 329/6/6
f 328/5/6 323/5/6 329/5/6
f 241/6/6 287/6/6 330/6/6
f 319/5/6 320/5/6 331/5/6
f 330/6/6 287/6/6 331/6/6
f 287/5/6 319/5/6 331/5/6
f 320/6/6 328/6/6 332/6/6
f 331/5/6 320/5/6 332/5/6
f 328/6/6 329/6/6 332/6/6
f 329/6/6 324/6/6 333/6/6
f 332/6/6 329/6/6 333/6/6
f 325/5/6 326/5/6 333/5/6
f 324/5/6 325/5/6 333/5/6
f 326/5/6 327/5/6 333/5/6
f 327/6/6 252/6/6 334/6/6
f 333/5/6 327/5/6 334/5/6
f 334/6/6 252/6/6 335/6/6
