# MagicaVoxel @ Ephtracy

# group
o 

# material
mtllib SueloInfierno2.mtl
usemtl palette

# normals
vn -1 0 0
vn 1 0 0
vn 0 0 1
vn 0 0 -1
vn 0 -1 0
vn 0 1 0

# texcoords
vt 0.0292969 0.5
vt 0.494141 0.5
vt 0.498047 0.5

# verts
v -1 0 1
v -1 0 -1
v -1 0.2 1
v -1 0.2 0.8
v -1 0.2 0.4
v -1 0.2 0.3
v -1 0.2 0.2
v -1 0.2 0
v -1 0.2 -0.2
v -1 0.2 -0.5
v -1 0.2 -0.6
v -1 0.2 -1
v -1 0.5 1
v -1 0.5 0.8
v -1 0.5 0.4
v -1 0.5 0.3
v -1 0.5 0.2
v -1 0.5 0
v -1 0.5 -0.2
v -1 0.5 -0.5
v -1 0.5 -0.6
v -1 0.5 -1
v 1 0 1
v 1 0 -1
v 1 0.2 1
v 1 0.2 0.8
v 1 0.2 0.6
v 1 0.2 0.5
v 1 0.2 0.2
v 1 0.2 0.1
v 1 0.2 -0.1
v 1 0.2 -0.2
v 1 0.2 -0.7
v 1 0.2 -0.8
v 1 0.2 -0.9
v 1 0.2 -1
v 1 0.4 -0.8
v 1 0.4 -0.9
v 1 0.5 1
v 1 0.5 0.8
v 1 0.5 0.6
v 1 0.5 0.5
v 1 0.5 0.2
v 1 0.5 0.1
v 1 0.5 -0.1
v 1 0.5 -0.2
v 1 0.5 -0.7
v 1 0.5 -0.8
v 1 0.5 -1
v -1 0 1
v -1 0.2 1
v -1 0.5 1
v -0.6 0.2 1
v -0.6 0.5 1
v -0.5 0.2 1
v -0.5 0.5 1
v -0.3 0.2 1
v -0.3 0.5 1
v 0 0.2 1
v 0 0.5 1
v 0.2 0.2 1
v 0.2 0.5 1
v 0.4 0.2 1
v 0.4 0.5 1
v 0.5 0.2 1
v 0.5 0.5 1
v 0.7 0.2 1
v 0.7 0.5 1
v 1 0 1
v 1 0.2 1
v 1 0.5 1
v -1 0 -1
v -1 0.2 -1
v -1 0.5 -1
v -0.6 0.2 -1
v -0.6 0.5 -1
v -0.5 0.2 -1
v -0.5 0.5 -1
v -0.3 0.2 -1
v -0.3 0.5 -1
v -0.1 0.2 -1
v -0.1 0.5 -1
v 0 0.2 -1
v 0 0.5 -1
v 0.4 0.2 -1
v 0.4 0.5 -1
v 0.6 0.2 -1
v 0.6 0.5 -1
v 1 0 -1
v 1 0.2 -1
v 1 0.5 -1
v -1 0 1
v 1 0 1
v -1 0 -1
v 1 0 -1
v -1 0.5 1
v -0.6 0.5 1
v -0.5 0.5 1
v -0.3 0.5 1
v 0 0.5 1
v 0.2 0.5 1
v 0.4 0.5 1
v 0.5 0.5 1
v 0.7 0.5 1
v 1 0.5 1
v -0.6 0.5 0.9
v -0.5 0.5 0.9
v -0.3 0.5 0.9
v -0.2 0.5 0.9
v 0 0.5 0.9
v 0.1 0.5 0.9
v 0.2 0.5 0.9
v 0.4 0.5 0.9
v 0.7 0.5 0.9
v 0.8 0.5 0.9
v -1 0.5 0.8
v -0.8 0.5 0.8
v -0.4 0.5 0.8
v -0.3 0.5 0.8
v -0.2 0.5 0.8
v -0.1 0.5 0.8
v 0 0.5 0.8
v 0.1 0.5 0.8
v 0.4 0.5 0.8
v 0.5 0.5 0.8
v 0.6 0.5 0.8
v 0.7 0.5 0.8
v 0.8 0.5 0.8
v 0.9 0.5 0.8
v 1 0.5 0.8
v -0.4 0.5 0.7
v -0.3 0.5 0.7
v -0.2 0.5 0.7
v -0.1 0.5 0.7
v 0 0.5 0.7
v 0.5 0.5 0.7
v 0.6 0.5 0.7
v 0.8 0.5 0.7
v 0.9 0.5 0.7
v -0.9 0.5 0.6
v -0.8 0.5 0.6
v -0.4 0.5 0.6
v -0.2 0.5 0.6
v 0.1 0.5 0.6
v 0.3 0.5 0.6
v 0.4 0.5 0.6
v 0.6 0.5 0.6
v 0.7 0.5 0.6
v 0.8 0.5 0.6
v 0.9 0.5 0.6
v 1 0.5 0.6
v -0.8 0.5 0.5
v -0.7 0.5 0.5
v -0.5 0.5 0.5
v -0.4 0.5 0.5
v -0.2 0.5 0.5
v 0.2 0.5 0.5
v 0.3 0.5 0.5
v 0.4 0.5 0.5
v 0.6 0.5 0.5
v 0.7 0.5 0.5
v 0.9 0.5 0.5
v 1 0.5 0.5
v -1 0.5 0.4
v -0.9 0.5 0.4
v -0.4 0.5 0.4
v -0.3 0.5 0.4
v -0.2 0.5 0.4
v 0 0.5 0.4
v 0.1 0.5 0.4
v 0.2 0.5 0.4
v 0.3 0.5 0.4
v 0.5 0.5 0.4
v 0.6 0.5 0.4
v 0.7 0.5 0.4
v 0.8 0.5 0.4
v -1 0.5 0.3
v -0.9 0.5 0.3
v -0.8 0.5 0.3
v -0.7 0.5 0.3
v -0.4 0.5 0.3
v -0.3 0.5 0.3
v -0.2 0.5 0.3
v -0.1 0.5 0.3
v 0 0.5 0.3
v 0.1 0.5 0.3
v 0.2 0.5 0.3
v 0.3 0.5 0.3
v 0.4 0.5 0.3
v 0.5 0.5 0.3
v 0.6 0.5 0.3
v 0.7 0.5 0.3
v 0.8 0.5 0.3
v -1 0.5 0.2
v -0.9 0.5 0.2
v -0.8 0.5 0.2
v -0.7 0.5 0.2
v -0.6 0.5 0.2
v -0.5 0.5 0.2
v -0.4 0.5 0.2
v -0.3 0.5 0.2
v -0.2 0.5 0.2
v -0.1 0.5 0.2
v 0 0.5 0.2
v 0.1 0.5 0.2
v 0.2 0.5 0.2
v 0.3 0.5 0.2
v 0.4 0.5 0.2
v 0.6 0.5 0.2
v 0.7 0.5 0.2
v 0.8 0.5 0.2
v 1 0.5 0.2
v -0.8 0.5 0.1
v -0.7 0.5 0.1
v -0.5 0.5 0.1
v -0.4 0.5 0.1
v -0.3 0.5 0.1
v -0.2 0.5 0.1
v -0.1 0.5 0.1
v 0 0.5 0.1
v 0.1 0.5 0.1
v 0.2 0.5 0.1
v 0.3 0.5 0.1
v 0.4 0.5 0.1
v 0.5 0.5 0.1
v 0.7 0.5 0.1
v 0.8 0.5 0.1
v 0.9 0.5 0.1
v 1 0.5 0.1
v -1 0.5 0
v -0.9 0.5 0
v -0.7 0.5 0
v -0.6 0.5 0
v -0.5 0.5 0
v -0.4 0.5 0
v -0.3 0.5 0
v -0.2 0.5 0
v 0.3 0.5 0
v 0.4 0.5 0
v 0.6 0.5 0
v 0.7 0.5 0
v -0.9 0.5 -0.1
v -0.8 0.5 -0.1
v -0.7 0.5 -0.1
v -0.5 0.5 -0.1
v -0.4 0.5 -0.1
v -0.3 0.5 -0.1
v 0.1 0.5 -0.1
v 0.2 0.5 -0.1
v 0.3 0.5 -0.1
v 0.4 0.5 -0.1
v 0.5 0.5 -0.1
v 0.6 0.5 -0.1
v 0.8 0.5 -0.1
v 0.9 0.5 -0.1
v 1 0.5 -0.1
v -1 0.5 -0.2
v -0.9 0.5 -0.2
v -0.6 0.5 -0.2
v -0.5 0.5 -0.2
v -0.4 0.5 -0.2
v -0.3 0.5 -0.2
v -0.2 0.5 -0.2
v -0.1 0.5 -0.2
v 0 0.5 -0.2
v 0.1 0.5 -0.2
v 0.2 0.5 -0.2
v 0.3 0.5 -0.2
v 0.5 0.5 -0.2
v 0.7 0.5 -0.2
v 0.8 0.5 -0.2
v 1 0.5 -0.2
v -0.9 0.5 -0.3
v -0.8 0.5 -0.3
v -0.7 0.5 -0.3
v -0.6 0.5 -0.3
v -0.5 0.5 -0.3
v -0.4 0.5 -0.3
v -0.3 0.5 -0.3
v -0.2 0.5 -0.3
v 0 0.5 -0.3
v 0.1 0.5 -0.3
v 0.3 0.5 -0.3
v 0.4 0.5 -0.3
v 0.5 0.5 -0.3
v 0.6 0.5 -0.3
v 0.7 0.5 -0.3
v -0.2 0.5 -0.4
v -0.1 0.5 -0.4
v 0 0.5 -0.4
v 0.2 0.5 -0.4
v 0.3 0.5 -0.4
v 0.6 0.5 -0.4
v 0.7 0.5 -0.4
v -1 0.5 -0.5
v -0.8 0.5 -0.5
v -0.7 0.5 -0.5
v -0.6 0.5 -0.5
v -0.5 0.5 -0.5
v -0.4 0.5 -0.5
v -0.2 0.5 -0.5
v -0.1 0.5 -0.5
v 0 0.5 -0.5
v 0.1 0.5 -0.5
v 0.4 0.5 -0.5
v 0.8 0.5 -0.5
v 0.9 0.5 -0.5
v -1 0.5 -0.6
v -0.9 0.5 -0.6
v -0.8 0.5 -0.6
v -0.7 0.5 -0.6
v -0.6 0.5 -0.6
v -0.5 0.5 -0.6
v -0.3 0.5 -0.6
v -0.2 0.5 -0.6
v 0 0.5 -0.6
v 0.1 0.5 -0.6
v 0.4 0.5 -0.6
v 0.8 0.5 -0.6
v -0.9 0.5 -0.7
v -0.8 0.5 -0.7
v -0.6 0.5 -0.7
v -0.3 0.5 -0.7
v -0.2 0.5 -0.7
v -0.1 0.5 -0.7
v 0 0.5 -0.7
v 0.2 0.5 -0.7
v 0.3 0.5 -0.7
v 0.4 0.5 -0.7
v 0.7 0.5 -0.7
v 0.9 0.5 -0.7
v 1 0.5 -0.7
v -0.9 0.5 -0.8
v -0.8 0.5 -0.8
v -0.6 0.5 -0.8
v -0.5 0.5 -0.8
v -0.2 0.5 -0.8
v -0.1 0.5 -0.8
v 0.2 0.5 -0.8
v 0.3 0.5 -0.8
v 0.4 0.5 -0.8
v 0.5 0.5 -0.8
v 0.6 0.5 -0.8
v 0.7 0.5 -0.8
v 0.8 0.5 -0.8
v 0.9 0.5 -0.8
v 1 0.5 -0.8
v -0.8 0.5 -0.9
v -0.6 0.5 -0.9
v -0.2 0.5 -0.9
v -0.1 0.5 -0.9
v 0 0.5 -0.9
v 0.2 0.5 -0.9
v 0.4 0.5 -0.9
v 0.5 0.5 -0.9
v 0.6 0.5 -0.9
v 0.9 0.5 -0.9
v -1 0.5 -1
v -0.6 0.5 -1
v -0.5 0.5 -1
v -0.3 0.5 -1
v -0.1 0.5 -1
v 0 0.5 -1
v 0.4 0.5 -1
v 0.6 0.5 -1
v 1 0.5 -1

# faces
f 3/1/1 2/1/1 1/1/1
f 4/1/1 2/1/1 3/1/1
f 5/1/1 2/1/1 4/1/1
f 6/1/1 2/1/1 5/1/1
f 7/1/1 2/1/1 6/1/1
f 8/1/1 2/1/1 7/1/1
f 9/1/1 2/1/1 8/1/1
f 10/1/1 2/1/1 9/1/1
f 11/1/1 2/1/1 10/1/1
f 12/1/1 2/1/1 11/1/1
f 13/3/1 4/3/1 3/3/1
f 14/1/1 5/1/1 4/1/1
f 14/3/1 4/3/1 13/3/1
f 15/3/1 6/3/1 5/3/1
f 15/1/1 5/1/1 14/1/1
f 16/1/1 7/1/1 6/1/1
f 16/3/1 6/3/1 15/3/1
f 17/3/1 8/3/1 7/3/1
f 17/1/1 7/1/1 16/1/1
f 18/2/1 9/2/1 8/2/1
f 18/3/1 8/3/1 17/3/1
f 19/3/1 10/3/1 9/3/1
f 19/2/1 9/2/1 18/2/1
f 20/2/1 11/2/1 10/2/1
f 20/3/1 10/3/1 19/3/1
f 21/3/1 12/3/1 11/3/1
f 21/2/1 11/2/1 20/2/1
f 22/3/1 12/3/1 21/3/1
f 23/1/2 24/1/2 25/1/2
f 25/1/2 24/1/2 26/1/2
f 26/1/2 24/1/2 27/1/2
f 27/1/2 24/1/2 28/1/2
f 28/1/2 24/1/2 29/1/2
f 29/1/2 24/1/2 30/1/2
f 30/1/2 24/1/2 31/1/2
f 31/1/2 24/1/2 32/1/2
f 32/1/2 24/1/2 33/1/2
f 33/1/2 24/1/2 34/1/2
f 34/1/2 24/1/2 35/1/2
f 35/1/2 24/1/2 36/1/2
f 33/2/2 34/2/2 37/2/2
f 34/1/2 35/1/2 37/1/2
f 35/3/2 36/3/2 38/3/2
f 37/1/2 35/1/2 38/1/2
f 25/3/2 26/3/2 39/3/2
f 26/2/2 27/2/2 40/2/2
f 39/3/2 26/3/2 40/3/2
f 27/1/2 28/1/2 41/1/2
f 40/2/2 27/2/2 41/2/2
f 28/3/2 29/3/2 42/3/2
f 41/1/2 28/1/2 42/1/2
f 29/1/2 30/1/2 43/1/2
f 42/3/2 29/3/2 43/3/2
f 30/3/2 31/3/2 44/3/2
f 43/1/2 30/1/2 44/1/2
f 31/1/2 32/1/2 45/1/2
f 44/3/2 31/3/2 45/3/2
f 32/3/2 33/3/2 46/3/2
f 45/1/2 32/1/2 46/1/2
f 33/2/2 37/2/2 47/2/2
f 46/3/2 33/3/2 47/3/2
f 37/3/2 38/3/2 48/3/2
f 47/2/2 37/2/2 48/2/2
f 38/3/2 36/3/2 49/3/2
f 48/3/2 38/3/2 49/3/2
f 53/1/3 51/1/3 50/1/3
f 53/3/3 52/3/3 51/3/3
f 54/3/3 52/3/3 53/3/3
f 55/1/3 53/1/3 50/1/3
f 55/2/3 54/2/3 53/2/3
f 56/2/3 54/2/3 55/2/3
f 57/1/3 55/1/3 50/1/3
f 57/1/3 56/1/3 55/1/3
f 58/1/3 56/1/3 57/1/3
f 59/1/3 57/1/3 50/1/3
f 59/3/3 58/3/3 57/3/3
f 60/3/3 58/3/3 59/3/3
f 61/1/3 59/1/3 50/1/3
f 61/2/3 60/2/3 59/2/3
f 62/2/3 60/2/3 61/2/3
f 63/1/3 61/1/3 50/1/3
f 63/1/3 62/1/3 61/1/3
f 64/1/3 62/1/3 63/1/3
f 65/1/3 63/1/3 50/1/3
f 65/3/3 64/3/3 63/3/3
f 66/3/3 64/3/3 65/3/3
f 67/1/3 65/1/3 50/1/3
f 67/1/3 66/1/3 65/1/3
f 68/1/3 66/1/3 67/1/3
f 69/1/3 67/1/3 50/1/3
f 70/3/3 68/3/3 67/3/3
f 70/1/3 67/1/3 69/1/3
f 71/3/3 68/3/3 70/3/3
f 72/1/4 73/1/4 75/1/4
f 73/3/4 74/3/4 75/3/4
f 75/3/4 74/3/4 76/3/4
f 72/1/4 75/1/4 77/1/4
f 75/2/4 76/2/4 77/2/4
f 77/2/4 76/2/4 78/2/4
f 72/1/4 77/1/4 79/1/4
f 77/3/4 78/3/4 79/3/4
f 79/3/4 78/3/4 80/3/4
f 72/1/4 79/1/4 81/1/4
f 79/1/4 80/1/4 81/1/4
f 81/1/4 80/1/4 82/1/4
f 72/1/4 81/1/4 83/1/4
f 81/2/4 82/2/4 83/2/4
f 83/2/4 82/2/4 84/2/4
f 72/1/4 83/1/4 85/1/4
f 83/3/4 84/3/4 85/3/4
f 85/3/4 84/3/4 86/3/4
f 72/1/4 85/1/4 87/1/4
f 85/1/4 86/1/4 87/1/4
f 87/1/4 86/1/4 88/1/4
f 72/1/4 87/1/4 89/1/4
f 87/3/4 88/3/4 90/3/4
f 89/1/4 87/1/4 90/1/4
f 90/3/4 88/3/4 91/3/4
f 94/1/5 93/1/5 92/1/5
f 95/1/5 93/1/5 94/1/5
f 96/3/6 97/3/6 106/3/6
f 97/2/6 98/2/6 106/2/6
f 98/1/6 99/1/6 107/1/6
f 106/2/6 98/2/6 107/2/6
f 99/3/6 100/3/6 108/3/6
f 107/1/6 99/1/6 108/1/6
f 108/3/6 100/3/6 109/3/6
f 100/2/6 101/2/6 110/2/6
f 109/3/6 100/3/6 110/3/6
f 110/2/6 101/2/6 111/2/6
f 101/1/6 102/1/6 112/1/6
f 111/2/6 101/2/6 112/2/6
f 102/3/6 103/3/6 113/3/6
f 112/1/6 102/1/6 113/1/6
f 104/3/6 105/3/6 114/3/6
f 103/1/6 104/1/6 114/1/6
f 114/3/6 105/3/6 115/3/6
f 96/3/6 106/3/6 116/3/6
f 106/3/6 107/3/6 116/3/6
f 116/3/6 107/3/6 117/3/6
f 107/1/6 108/1/6 118/1/6
f 108/2/6 109/2/6 119/2/6
f 118/1/6 108/1/6 119/1/6
f 110/1/6 111/1/6 120/1/6
f 119/2/6 109/2/6 120/2/6
f 109/1/6 110/1/6 120/1/6
f 120/1/6 111/1/6 121/1/6
f 121/1/6 111/1/6 122/1/6
f 112/2/6 113/2/6 123/2/6
f 122/1/6 111/1/6 123/1/6
f 111/2/6 112/2/6 123/2/6
f 113/3/6 103/3/6 124/3/6
f 123/2/6 113/2/6 124/2/6
f 114/1/6 115/1/6 125/1/6
f 124/3/6 103/3/6 125/3/6
f 103/1/6 114/1/6 125/1/6
f 125/1/6 115/1/6 126/1/6
f 126/1/6 115/1/6 127/1/6
f 115/3/6 105/3/6 128/3/6
f 127/1/6 115/1/6 128/1/6
f 128/3/6 105/3/6 129/3/6
f 129/3/6 105/3/6 130/3/6
f 107/1/6 118/1/6 131/1/6
f 118/2/6 119/2/6 131/2/6
f 119/3/6 120/3/6 132/3/6
f 131/2/6 119/2/6 132/2/6
f 120/1/6 121/1/6 133/1/6
f 132/3/6 120/3/6 133/3/6
f 121/3/6 122/3/6 134/3/6
f 133/1/6 121/1/6 134/1/6
f 122/1/6 123/1/6 135/1/6
f 134/3/6 122/3/6 135/3/6
f 123/1/6 124/1/6 135/1/6
f 124/1/6 125/1/6 135/1/6
f 125/3/6 126/3/6 136/3/6
f 135/1/6 125/1/6 136/1/6
f 126/1/6 127/1/6 137/1/6
f 136/3/6 126/3/6 137/3/6
f 128/1/6 129/1/6 138/1/6
f 127/3/6 128/3/6 138/3/6
f 129/2/6 130/2/6 139/2/6
f 138/1/6 129/1/6 139/1/6
f 116/1/6 117/1/6 140/1/6
f 117/3/6 107/3/6 141/3/6
f 140/1/6 117/1/6 141/1/6
f 133/1/6 134/1/6 142/1/6
f 132/1/6 133/1/6 142/1/6
f 135/1/6 136/1/6 142/1/6
f 131/1/6 132/1/6 142/1/6
f 134/1/6 135/1/6 142/1/6
f 136/1/6 137/1/6 142/1/6
f 107/1/6 131/1/6 142/1/6
f 142/1/6 137/1/6 143/1/6
f 143/1/6 137/1/6 144/1/6
f 144/1/6 137/1/6 145/1/6
f 145/1/6 137/1/6 146/1/6
f 137/1/6 127/1/6 147/1/6
f 146/1/6 137/1/6 147/1/6
f 138/3/6 139/3/6 148/3/6
f 147/1/6 127/1/6 148/1/6
f 127/3/6 138/3/6 148/3/6
f 148/3/6 139/3/6 149/3/6
f 139/2/6 130/2/6 150/2/6
f 149/3/6 139/3/6 150/3/6
f 150/2/6 130/2/6 151/2/6
f 141/3/6 107/3/6 152/3/6
f 140/2/6 141/2/6 152/2/6
f 152/3/6 107/3/6 153/3/6
f 107/1/6 142/1/6 154/1/6
f 153/3/6 107/3/6 154/3/6
f 142/2/6 143/2/6 155/2/6
f 154/1/6 142/1/6 155/1/6
f 143/3/6 144/3/6 156/3/6
f 155/2/6 143/2/6 156/2/6
f 144/1/6 145/1/6 157/1/6
f 145/3/6 146/3/6 158/3/6
f 157/1/6 145/1/6 158/1/6
f 146/1/6 147/1/6 159/1/6
f 158/3/6 146/3/6 159/3/6
f 147/3/6 148/3/6 160/3/6
f 159/1/6 147/1/6 160/1/6
f 148/1/6 149/1/6 161/1/6
f 160/3/6 148/3/6 161/3/6
f 150/1/6 151/1/6 162/1/6
f 149/3/6 150/3/6 162/3/6
f 162/1/6 151/1/6 163/1/6
f 116/1/6 140/1/6 164/1/6
f 152/2/6 153/2/6 165/2/6
f 164/1/6 140/1/6 165/1/6
f 140/2/6 152/2/6 165/2/6
f 153/1/6 154/1/6 166/1/6
f 154/1/6 155/1/6 166/1/6
f 155/1/6 156/1/6 166/1/6
f 166/1/6 156/1/6 167/1/6
f 156/3/6 144/3/6 168/3/6
f 167/1/6 156/1/6 168/1/6
f 168/3/6 144/3/6 169/3/6
f 144/1/6 157/1/6 170/1/6
f 169/3/6 144/3/6 170/3/6
f 157/3/6 158/3/6 171/3/6
f 170/1/6 157/1/6 171/1/6
f 159/1/6 160/1/6 172/1/6
f 171/3/6 158/3/6 172/3/6
f 158/1/6 159/1/6 172/1/6
f 160/1/6 161/1/6 172/1/6
f 172/1/6 161/1/6 173/1/6
f 173/1/6 161/1/6 174/1/6
f 161/1/6 149/1/6 175/1/6
f 174/1/6 161/1/6 175/1/6
f 162/3/6 163/3/6 176/3/6
f 175/1/6 149/1/6 176/1/6
f 149/3/6 162/3/6 176/3/6
f 164/3/6 165/3/6 177/3/6
f 165/2/6 153/2/6 178/2/6
f 177/3/6 165/3/6 178/3/6
f 178/2/6 153/2/6 179/2/6
f 153/1/6 166/1/6 180/1/6
f 179/2/6 153/2/6 180/2/6
f 166/2/6 167/2/6 181/2/6
f 180/1/6 166/1/6 181/1/6
f 168/1/6 169/1/6 182/1/6
f 181/2/6 167/2/6 182/2/6
f 167/1/6 168/1/6 182/1/6
f 182/1/6 169/1/6 183/1/6
f 183/1/6 169/1/6 184/1/6
f 169/3/6 170/3/6 185/3/6
f 184/1/6 169/1/6 185/1/6
f 170/3/6 171/3/6 185/3/6
f 185/3/6 171/3/6 186/3/6
f 172/1/6 173/1/6 187/1/6
f 186/3/6 171/3/6 187/3/6
f 171/1/6 172/1/6 187/1/6
f 187/1/6 173/1/6 188/1/6
f 188/1/6 173/1/6 189/1/6
f 173/2/6 174/2/6 190/2/6
f 189/1/6 173/1/6 190/1/6
f 174/1/6 175/1/6 191/1/6
f 190/2/6 174/2/6 191/2/6
f 175/3/6 176/3/6 192/3/6
f 191/1/6 175/1/6 192/1/6
f 176/3/6 163/3/6 193/3/6
f 192/3/6 176/3/6 193/3/6
f 177/1/6 178/1/6 194/1/6
f 178/2/6 179/2/6 195/2/6
f 194/1/6 178/1/6 195/1/6
f 180/1/6 181/1/6 196/1/6
f 195/2/6 179/2/6 196/2/6
f 179/1/6 180/1/6 196/1/6
f 196/1/6 181/1/6 197/1/6
f 197/1/6 181/1/6 198/1/6
f 198/1/6 181/1/6 199/1/6
f 182/3/6 183/3/6 200/3/6
f 199/1/6 181/1/6 200/1/6
f 181/3/6 182/3/6 200/3/6
f 200/3/6 183/3/6 201/3/6
f 183/1/6 184/1/6 202/1/6
f 201/3/6 183/3/6 202/3/6
f 184/2/6 185/2/6 203/2/6
f 202/1/6 184/1/6 203/1/6
f 185/3/6 186/3/6 204/3/6
f 203/2/6 185/2/6 204/2/6
f 186/2/6 187/2/6 205/2/6
f 204/3/6 186/3/6 205/3/6
f 187/1/6 188/1/6 206/1/6
f 205/2/6 187/2/6 206/2/6
f 188/3/6 189/3/6 207/3/6
f 206/1/6 188/1/6 207/1/6
f 189/1/6 190/1/6 208/1/6
f 207/3/6 189/3/6 208/3/6
f 190/1/6 191/1/6 208/1/6
f 191/3/6 192/3/6 209/3/6
f 208/1/6 191/1/6 209/1/6
f 192/1/6 193/1/6 210/1/6
f 209/3/6 192/3/6 210/3/6
f 193/3/6 163/3/6 211/3/6
f 210/1/6 193/1/6 211/1/6
f 211/3/6 163/3/6 212/3/6
f 194/3/6 195/3/6 213/3/6
f 195/3/6 196/3/6 213/3/6
f 196/3/6 197/3/6 213/3/6
f 197/1/6 198/1/6 214/1/6
f 213/3/6 197/3/6 214/3/6
f 198/3/6 199/3/6 215/3/6
f 199/1/6 200/1/6 215/1/6
f 200/2/6 201/2/6 216/2/6
f 215/1/6 200/1/6 216/1/6
f 201/3/6 202/3/6 217/3/6
f 216/2/6 201/2/6 217/2/6
f 202/2/6 203/2/6 218/2/6
f 217/3/6 202/3/6 218/3/6
f 205/3/6 206/3/6 219/3/6
f 218/2/6 203/2/6 219/2/6
f 203/3/6 204/3/6 219/3/6
f 204/3/6 205/3/6 219/3/6
f 219/3/6 206/3/6 220/3/6
f 220/3/6 206/3/6 221/3/6
f 206/2/6 207/2/6 222/2/6
f 221/3/6 206/3/6 222/3/6
f 208/1/6 209/1/6 223/1/6
f 222/2/6 207/2/6 223/2/6
f 207/1/6 208/1/6 223/1/6
f 209/1/6 210/1/6 223/1/6
f 223/1/6 210/1/6 224/1/6
f 224/1/6 210/1/6 225/1/6
f 210/3/6 211/3/6 226/3/6
f 225/1/6 210/1/6 226/1/6
f 211/1/6 212/1/6 227/1/6
f 226/3/6 211/3/6 227/3/6
f 227/1/6 212/1/6 228/1/6
f 228/1/6 212/1/6 229/1/6
f 194/3/6 213/3/6 230/3/6
f 230/3/6 213/3/6 231/3/6
f 214/1/6 198/1/6 232/1/6
f 213/1/6 214/1/6 232/1/6
f 198/3/6 215/3/6 233/3/6
f 232/1/6 198/1/6 233/1/6
f 215/2/6 216/2/6 234/2/6
f 233/3/6 215/3/6 234/3/6
f 216/3/6 217/3/6 235/3/6
f 234/2/6 216/2/6 235/2/6
f 217/2/6 218/2/6 236/2/6
f 235/3/6 217/3/6 236/3/6
f 219/1/6 220/1/6 237/1/6
f 236/2/6 218/2/6 237/2/6
f 218/1/6 219/1/6 237/1/6
f 222/1/6 223/1/6 238/1/6
f 223/2/6 224/2/6 238/2/6
f 224/1/6 225/1/6 239/1/6
f 238/2/6 224/2/6 239/2/6
f 225/3/6 226/3/6 240/3/6
f 226/2/6 227/2/6 241/2/6
f 240/3/6 226/3/6 241/3/6
f 231/3/6 213/3/6 242/3/6
f 230/2/6 231/2/6 242/2/6
f 213/1/6 232/1/6 243/1/6
f 242/3/6 213/3/6 243/3/6
f 233/3/6 234/3/6 244/3/6
f 243/1/6 232/1/6 244/1/6
f 232/3/6 233/3/6 244/3/6
f 234/1/6 235/1/6 245/1/6
f 244/3/6 234/3/6 245/3/6
f 235/1/6 236/1/6 245/1/6
f 236/1/6 237/1/6 245/1/6
f 245/1/6 237/1/6 246/1/6
f 246/1/6 237/1/6 247/1/6
f 221/3/6 222/3/6 248/3/6
f 220/2/6 221/2/6 248/2/6
f 238/1/6 239/1/6 249/1/6
f 248/3/6 222/3/6 249/3/6
f 222/1/6 238/1/6 249/1/6
f 249/1/6 239/1/6 250/1/6
f 239/1/6 225/1/6 251/1/6
f 250/1/6 239/1/6 251/1/6
f 225/3/6 240/3/6 252/3/6
f 251/1/6 225/1/6 252/1/6
f 240/2/6 241/2/6 253/2/6
f 252/3/6 240/3/6 253/3/6
f 241/2/6 227/2/6 254/2/6
f 253/2/6 241/2/6 254/2/6
f 227/1/6 228/1/6 254/1/6
f 228/3/6 229/3/6 255/3/6
f 254/1/6 228/1/6 255/1/6
f 255/3/6 229/3/6 256/3/6
f 230/2/6 242/2/6 257/2/6
f 242/1/6 243/1/6 258/1/6
f 257/2/6 242/2/6 258/2/6
f 245/1/6 246/1/6 259/1/6
f 244/1/6 245/1/6 259/1/6
f 259/1/6 246/1/6 260/1/6
f 246/2/6 247/2/6 261/2/6
f 260/1/6 246/1/6 261/1/6
f 247/1/6 237/1/6 262/1/6
f 261/2/6 247/2/6 262/2/6
f 237/1/6 220/1/6 263/1/6
f 262/1/6 237/1/6 263/1/6
f 263/1/6 220/1/6 264/1/6
f 220/2/6 248/2/6 265/2/6
f 264/1/6 220/1/6 265/1/6
f 248/2/6 249/2/6 265/2/6
f 265/2/6 249/2/6 266/2/6
f 249/3/6 250/3/6 267/3/6
f 266/2/6 249/2/6 267/2/6
f 250/1/6 251/1/6 268/1/6
f 267/3/6 250/3/6 268/3/6
f 252/1/6 253/1/6 269/1/6
f 253/1/6 254/1/6 269/1/6
f 251/3/6 252/3/6 269/3/6
f 254/1/6 255/1/6 269/1/6
f 255/1/6 256/1/6 269/1/6
f 269/1/6 256/1/6 270/1/6
f 270/1/6 256/1/6 271/1/6
f 271/1/6 256/1/6 272/1/6
f 258/1/6 243/1/6 273/1/6
f 257/3/6 258/3/6 273/3/6
f 243/3/6 244/3/6 274/3/6
f 273/1/6 243/1/6 274/1/6
f 244/1/6 259/1/6 275/1/6
f 274/3/6 244/3/6 275/3/6
f 259/3/6 260/3/6 276/3/6
f 275/1/6 259/1/6 276/1/6
f 260/1/6 261/1/6 277/1/6
f 276/3/6 260/3/6 277/3/6
f 261/3/6 262/3/6 278/3/6
f 277/1/6 261/1/6 278/1/6
f 262/1/6 263/1/6 279/1/6
f 278/3/6 262/3/6 279/3/6
f 263/3/6 264/3/6 280/3/6
f 279/1/6 263/1/6 280/1/6
f 264/2/6 265/2/6 281/2/6
f 265/2/6 266/2/6 281/2/6
f 267/1/6 268/1/6 282/1/6
f 281/2/6 266/2/6 282/2/6
f 266/1/6 267/1/6 282/1/6
f 268/1/6 251/1/6 283/1/6
f 282/1/6 268/1/6 283/1/6
f 251/3/6 269/3/6 284/3/6
f 283/1/6 251/1/6 284/1/6
f 269/2/6 270/2/6 285/2/6
f 284/3/6 269/3/6 285/3/6
f 285/2/6 270/2/6 286/2/6
f 270/1/6 271/1/6 287/1/6
f 286/2/6 270/2/6 287/2/6
f 280/3/6 264/3/6 288/3/6
f 279/3/6 280/3/6 288/3/6
f 264/2/6 281/2/6 289/2/6
f 288/3/6 264/3/6 289/3/6
f 281/3/6 282/3/6 290/3/6
f 289/2/6 281/2/6 290/2/6
f 282/3/6 283/3/6 290/3/6
f 290/3/6 283/3/6 291/3/6
f 285/1/6 286/1/6 292/1/6
f 291/3/6 283/3/6 292/3/6
f 284/1/6 285/1/6 292/1/6
f 283/1/6 284/1/6 292/1/6
f 286/3/6 287/3/6 293/3/6
f 292/1/6 286/1/6 293/1/6
f 287/1/6 271/1/6 294/1/6
f 293/3/6 287/3/6 294/3/6
f 257/3/6 273/3/6 295/3/6
f 273/3/6 274/3/6 295/3/6
f 274/2/6 275/2/6 296/2/6
f 295/3/6 274/3/6 296/3/6
f 275/1/6 276/1/6 297/1/6
f 296/2/6 275/2/6 297/2/6
f 276/1/6 277/1/6 297/1/6
f 297/1/6 277/1/6 298/1/6
f 277/3/6 278/3/6 299/3/6
f 298/1/6 277/1/6 299/1/6
f 278/1/6 279/1/6 300/1/6
f 299/3/6 278/3/6 300/3/6
f 288/1/6 289/1/6 301/1/6
f 279/3/6 288/3/6 301/3/6
f 289/1/6 290/1/6 301/1/6
f 301/1/6 290/1/6 302/1/6
f 290/3/6 291/3/6 303/3/6
f 302/1/6 290/1/6 303/1/6
f 303/3/6 291/3/6 304/3/6
f 292/1/6 293/1/6 305/1/6
f 293/1/6 294/1/6 305/1/6
f 294/1/6 271/1/6 306/1/6
f 305/1/6 294/1/6 306/1/6
f 271/3/6 272/3/6 306/3/6
f 306/3/6 272/3/6 307/3/6
f 295/2/6 296/2/6 308/2/6
f 308/2/6 296/2/6 309/2/6
f 296/3/6 297/3/6 310/3/6
f 309/2/6 296/2/6 310/2/6
f 297/1/6 298/1/6 311/1/6
f 310/3/6 297/3/6 311/3/6
f 298/3/6 299/3/6 312/3/6
f 311/1/6 298/1/6 312/1/6
f 299/1/6 300/1/6 313/1/6
f 312/3/6 299/3/6 313/3/6
f 300/1/6 279/1/6 314/1/6
f 313/1/6 300/1/6 314/1/6
f 301/3/6 302/3/6 314/3/6
f 279/3/6 301/3/6 314/3/6
f 314/3/6 302/3/6 315/3/6
f 302/1/6 303/1/6 316/1/6
f 303/1/6 304/1/6 316/1/6
f 304/3/6 291/3/6 317/3/6
f 316/1/6 304/1/6 317/1/6
f 292/1/6 305/1/6 318/1/6
f 305/3/6 306/3/6 318/3/6
f 306/1/6 307/1/6 319/1/6
f 318/3/6 306/3/6 319/3/6
f 308/3/6 309/3/6 320/3/6
f 309/2/6 310/2/6 320/2/6
f 311/1/6 312/1/6 321/1/6
f 320/2/6 310/2/6 321/2/6
f 310/1/6 311/1/6 321/1/6
f 312/2/6 313/2/6 322/2/6
f 321/1/6 312/1/6 322/1/6
f 313/2/6 314/2/6 322/2/6
f 314/2/6 315/2/6 322/2/6
f 322/2/6 315/2/6 323/2/6
f 315/3/6 302/3/6 324/3/6
f 323/2/6 315/2/6 324/2/6
f 302/1/6 316/1/6 325/1/6
f 324/3/6 302/3/6 325/3/6
f 316/3/6 317/3/6 326/3/6
f 325/1/6 316/1/6 326/1/6
f 317/3/6 291/3/6 327/3/6
f 326/3/6 317/3/6 327/3/6
f 291/2/6 292/2/6 327/2/6
f 292/1/6 318/1/6 328/1/6
f 327/2/6 292/2/6 328/2/6
f 318/2/6 319/2/6 329/2/6
f 328/1/6 318/1/6 329/1/6
f 329/2/6 319/2/6 330/2/6
f 307/3/6 272/3/6 331/3/6
f 319/1/6 307/1/6 331/1/6
f 331/3/6 272/3/6 332/3/6
f 320/1/6 321/1/6 333/1/6
f 308/3/6 320/3/6 333/3/6
f 321/1/6 322/1/6 333/1/6
f 333/1/6 322/1/6 334/1/6
f 322/3/6 323/3/6 335/3/6
f 334/1/6 322/1/6 335/1/6
f 335/3/6 323/3/6 336/3/6
f 325/1/6 326/1/6 337/1/6
f 324/1/6 325/1/6 337/1/6
f 323/1/6 324/1/6 337/1/6
f 327/1/6 328/1/6 337/1/6
f 326/1/6 327/1/6 337/1/6
f 337/1/6 328/1/6 338/1/6
f 338/1/6 328/1/6 339/1/6
f 328/3/6 329/3/6 340/3/6
f 339/1/6 328/1/6 340/1/6
f 329/1/6 330/1/6 341/1/6
f 340/3/6 329/3/6 341/3/6
f 341/1/6 330/1/6 342/1/6
f 342/1/6 330/1/6 343/1/6
f 330/2/6 319/2/6 344/2/6
f 343/1/6 330/1/6 344/1/6
f 319/1/6 331/1/6 345/1/6
f 344/2/6 319/2/6 345/2/6
f 331/2/6 332/2/6 346/2/6
f 345/1/6 331/1/6 346/1/6
f 346/2/6 332/2/6 347/2/6
f 334/1/6 335/1/6 348/1/6
f 333/3/6 334/3/6 348/3/6
f 335/2/6 336/2/6 349/2/6
f 348/1/6 335/1/6 349/1/6
f 323/1/6 337/1/6 350/1/6
f 337/2/6 338/2/6 350/2/6
f 338/3/6 339/3/6 351/3/6
f 350/2/6 338/2/6 351/2/6
f 351/3/6 339/3/6 352/3/6
f 339/1/6 340/1/6 353/1/6
f 352/3/6 339/3/6 353/3/6
f 340/1/6 341/1/6 353/1/6
f 341/1/6 342/1/6 353/1/6
f 353/1/6 342/1/6 354/1/6
f 342/2/6 343/2/6 355/2/6
f 354/1/6 342/1/6 355/1/6
f 344/1/6 345/1/6 356/1/6
f 355/2/6 343/2/6 356/2/6
f 343/1/6 344/1/6 356/1/6
f 345/1/6 346/1/6 356/1/6
f 346/3/6 347/3/6 357/3/6
f 356/1/6 346/1/6 357/1/6
f 333/3/6 348/3/6 358/3/6
f 308/3/6 333/3/6 358/3/6
f 348/3/6 349/3/6 358/3/6
f 349/2/6 336/2/6 359/2/6
f 358/3/6 349/3/6 359/3/6
f 336/3/6 323/3/6 360/3/6
f 359/2/6 336/2/6 360/2/6
f 323/1/6 350/1/6 361/1/6
f 360/3/6 323/3/6 361/3/6
f 350/1/6 351/1/6 361/1/6
f 351/2/6 352/2/6 362/2/6
f 361/1/6 351/1/6 362/1/6
f 353/3/6 354/3/6 363/3/6
f 362/2/6 352/2/6 363/2/6
f 352/3/6 353/3/6 363/3/6
f 354/1/6 355/1/6 364/1/6
f 363/3/6 354/3/6 364/3/6
f 355/1/6 356/1/6 364/1/6
f 356/3/6 357/3/6 365/3/6
f 364/1/6 356/1/6 365/1/6
f 357/3/6 347/3/6 366/3/6
f 365/3/6 357/3/6 366/3/6
